<svg width="638" height="145" viewBox="0 0 638 145" fill="none" xmlns="http://www.w3.org/2000/svg">
<path d="M152.06 43.4128C152.001 43.716 152.036 44.0299 152.16 44.3128C152.367 44.5828 152.66 44.7735 152.99 44.8528L166.36 49.8528C167.209 50.0713 167.968 50.5504 168.53 51.2228C168.884 51.854 169.061 52.5694 169.04 53.2928C169.184 56.5415 168.826 59.7929 167.98 62.9328C167.171 65.7075 166.117 68.4048 164.83 70.9928C164.617 71.3484 164.513 71.7586 164.53 72.1728C164.658 72.6306 164.946 73.0276 165.34 73.2928C166.718 74.407 168.264 75.2948 169.92 75.9228C173.707 66.8693 176.413 57.4005 177.98 47.7128C178.079 47.3898 178.107 47.0492 178.062 46.7145C178.017 46.3797 177.9 46.0585 177.72 45.7728C177.341 45.4301 176.86 45.2226 176.35 45.1828C171.511 44.3794 166.715 43.3348 161.98 42.0528C159.59 41.3528 157.36 40.2228 154.98 39.4728C152.34 38.5828 152.33 41.0528 152.06 43.4128Z" fill="#F7931E"/>
<path d="M485.421 44.4128C485.479 44.716 485.445 45.0299 485.321 45.3128C485.114 45.5828 484.821 45.7735 484.491 45.8528L471.121 50.8528C470.272 51.0713 469.513 51.5504 468.951 52.2228C468.596 52.854 468.42 53.5694 468.441 54.2928C468.297 57.5415 468.655 60.7929 469.501 63.9328C470.31 66.7075 471.364 69.4048 472.651 71.9928C472.864 72.3484 472.968 72.7586 472.951 73.1728C472.822 73.6306 472.535 74.0276 472.141 74.2928C470.763 75.407 469.217 76.2948 467.561 76.9228C463.774 67.8693 461.068 58.4005 459.501 48.7128C459.402 48.3898 459.374 48.0492 459.419 47.7145C459.464 47.3797 459.58 47.0585 459.761 46.7728C460.139 46.4301 460.621 46.2226 461.131 46.1828C465.97 45.3794 470.766 44.3348 475.501 43.0528C477.891 42.3528 480.121 41.2228 482.501 40.4728C485.141 39.5828 485.151 42.0528 485.421 44.4128Z" fill="#F7931E"/>
<path d="M169.08 98.3628L164.89 101.553C164.592 101.823 164.219 101.998 163.82 102.053C163.12 102.053 162.66 101.353 162.34 100.733C158.28 92.7328 154.93 84.4828 151.58 76.2028L138.06 42.8128C140.29 42.3428 141.91 41.9528 144.14 41.4828C144.294 41.415 144.461 41.3812 144.629 41.3835C144.797 41.3859 144.962 41.4245 145.114 41.4966C145.266 41.5687 145.4 41.6727 145.509 41.8015C145.617 41.9302 145.696 42.0808 145.74 42.2428C147.113 44.9979 148.303 47.8408 149.3 50.7528C155.22 66.9628 160.06 83.6528 169.08 98.3628Z" fill="#F7931E"/>
<path d="M468.401 99.3628L472.591 102.553C472.889 102.823 473.262 102.998 473.661 103.053C474.361 103.053 474.821 102.353 475.141 101.733C479.201 93.7328 482.551 85.4828 485.901 77.2028L499.421 43.8128C497.191 43.3428 495.571 42.9528 493.341 42.4828C493.187 42.415 493.02 42.3812 492.852 42.3835C492.684 42.3859 492.518 42.4245 492.367 42.4966C492.215 42.5687 492.08 42.6727 491.972 42.8015C491.864 42.9302 491.785 43.0808 491.741 43.2428C490.367 45.9979 489.178 48.8408 488.181 51.7528C482.261 67.9628 477.421 84.6528 468.401 99.3628Z" fill="#F7931E"/>
<path d="M130.14 90.1828C129.84 90.9374 129.84 91.7783 130.14 92.5329C130.551 93.0943 131.139 93.4997 131.81 93.6828C138.39 96.3028 145.17 98.6028 151.22 102.293C151.81 102.653 152.71 102.983 153.1 102.403C153.234 102.162 153.29 101.886 153.26 101.613C153.26 100.053 153.26 98.4928 153.26 96.9328C153.315 96.6034 153.251 96.2652 153.079 95.9791C152.906 95.693 152.637 95.478 152.32 95.3728C149.267 93.7027 146.079 92.2911 142.79 91.1528C141.403 90.8318 140.145 90.0999 139.18 89.0528C137.95 87.3828 138.51 85.0528 139.12 83.0528C140.26 79.3795 141.397 75.7128 142.53 72.0528C142.645 71.7642 142.683 71.4506 142.64 71.1428C142.537 70.84 142.346 70.5751 142.09 70.3829C140.418 68.8127 138.34 67.7423 136.09 67.2928C134.51 74.9728 132.16 82.6228 130.14 90.1828Z" fill="#F7931E"/>
<path d="M507.341 91.1828C507.641 91.9374 507.641 92.7783 507.341 93.5329C506.93 94.0943 506.341 94.4997 505.671 94.6828C499.091 97.3028 492.311 99.6028 486.261 103.293C485.671 103.653 484.771 103.983 484.381 103.403C484.247 103.162 484.191 102.886 484.221 102.613C484.221 101.053 484.221 99.4928 484.221 97.9328C484.165 97.6034 484.23 97.2652 484.402 96.9791C484.575 96.693 484.844 96.478 485.161 96.3728C488.214 94.7027 491.402 93.2911 494.691 92.1528C496.078 91.8318 497.336 91.0999 498.301 90.0528C499.531 88.3828 498.971 86.0528 498.361 84.0528C497.221 80.3795 496.084 76.7128 494.951 73.0528C494.835 72.7642 494.798 72.4506 494.841 72.1428C494.943 71.84 495.135 71.5751 495.391 71.3829C497.063 69.8127 499.141 68.7423 501.391 68.2928C502.971 75.9728 505.321 83.6228 507.341 91.1828Z" fill="#F7931E"/>
<path d="M182.64 36.4328C182.22 37.2887 182.104 38.262 182.31 39.1928C182.446 39.6268 182.678 40.0242 182.99 40.3551C183.302 40.686 183.685 40.9417 184.11 41.1028C184.971 41.4194 185.922 41.3871 186.76 41.0128C187.324 40.775 187.821 40.4028 188.208 39.9287C188.595 39.4546 188.86 38.8929 188.98 38.2928C189.084 37.6949 189.027 37.0803 188.816 36.5112C188.606 35.9422 188.248 35.439 187.78 35.0528C187.372 34.739 186.897 34.5234 186.392 34.4228C185.888 34.3223 185.366 34.3394 184.869 34.4729C184.372 34.6063 183.912 34.8526 183.526 35.1925C183.139 35.5324 182.836 35.9568 182.64 36.4328V36.4328Z" fill="#F7931E"/>
<path d="M454.841 37.4328C455.261 38.2887 455.377 39.262 455.171 40.1928C455.035 40.6268 454.802 41.0242 454.49 41.3551C454.179 41.686 453.796 41.9417 453.371 42.1028C452.509 42.4194 451.558 42.3871 450.721 42.0128C450.157 41.775 449.66 41.4028 449.273 40.9287C448.886 40.4546 448.621 39.8929 448.501 39.2928C448.397 38.6949 448.454 38.0803 448.664 37.5112C448.875 36.9422 449.233 36.439 449.701 36.0528C450.109 35.739 450.583 35.5234 451.088 35.4228C451.593 35.3223 452.114 35.3394 452.612 35.4729C453.109 35.6063 453.568 35.8526 453.955 36.1925C454.342 36.5324 454.645 36.9568 454.841 37.4328V37.4328Z" fill="#F7931E"/>
<path d="M183.22 74.5628C183.34 74.9528 183.5 75.3828 183.88 75.5628C184.46 75.7928 185.01 75.1828 185.34 74.6528C186.46 72.8328 187.54 70.9928 188.57 69.1128C188.975 68.4872 189.237 67.7807 189.34 67.0428C189.375 66.8586 189.335 66.668 189.23 66.5128C189.116 66.4032 188.974 66.3271 188.82 66.2928C187.329 65.927 185.796 65.7556 184.26 65.7828C182.26 65.7228 180.63 65.3928 181.09 67.8628C181.49 69.9828 183.22 72.3928 183.22 74.5628Z" fill="#008657"/>
<path d="M454.261 75.5628C454.141 75.9528 453.981 76.3828 453.601 76.5628C453.021 76.7928 452.471 76.1828 452.141 75.6528C451.021 73.8328 449.941 71.9928 448.911 70.1128C448.506 69.4872 448.243 68.7807 448.141 68.0428C448.106 67.8586 448.145 67.668 448.251 67.5128C448.364 67.4032 448.506 67.3271 448.661 67.2928C450.152 66.927 451.685 66.7556 453.221 66.7828C455.221 66.7228 456.851 66.3928 456.391 68.8628C455.991 70.9828 454.261 73.3928 454.261 75.5628Z" fill="#008657"/>
<path d="M75.8002 50.0528C75.9202 50.4428 76.0802 50.8728 76.4602 51.0528C77.0402 51.2828 77.5902 50.6728 77.9202 50.1428C79.0402 48.3228 80.1169 46.4762 81.1502 44.6028C81.5547 43.9772 81.8175 43.2707 81.9202 42.5328C81.9549 42.3486 81.9154 42.158 81.8102 42.0028C81.6963 41.8932 81.5545 41.8171 81.4002 41.7828C79.9114 41.4192 78.3827 41.2445 76.8502 41.2628C74.8502 41.2128 73.2102 40.8828 73.6702 43.3528C74.0702 45.4328 75.8002 47.8428 75.8002 50.0528Z" fill="#008657"/>
<path d="M561.68 51.0528C561.56 51.4428 561.4 51.8728 561.02 52.0528C560.44 52.2828 559.89 51.6728 559.56 51.1428C558.44 49.3228 557.364 47.4762 556.33 45.6028C555.926 44.9772 555.663 44.2707 555.56 43.5328C555.526 43.3486 555.565 43.158 555.67 43.0028C555.784 42.8932 555.926 42.8171 556.08 42.7828C557.569 42.4192 559.098 42.2445 560.63 42.2628C562.63 42.2128 564.27 41.8828 563.81 44.3528C563.41 46.4328 561.68 48.8428 561.68 51.0528Z" fill="#008657"/>
<path d="M277.16 59.8428C277.28 60.2328 277.44 60.6628 277.82 60.8428C278.4 61.0728 278.95 60.4628 279.28 59.9328C280.4 58.1128 281.477 56.2661 282.51 54.3928C282.915 53.7672 283.177 53.0607 283.28 52.3228C283.315 52.1385 283.275 51.948 283.17 51.7928C283.056 51.6832 282.914 51.6071 282.76 51.5728C281.268 51.2087 279.736 51.034 278.2 51.0528C276.2 51.0028 274.57 50.6728 275.03 53.1428C275.43 55.2628 277.16 57.6728 277.16 59.8428Z" fill="#F7931E"/>
<path d="M360.321 60.8429C360.201 61.2329 360.041 61.6629 359.661 61.8429C359.081 62.0729 358.531 61.4629 358.201 60.9329C357.081 59.1129 356.004 57.2662 354.971 55.3929C354.566 54.7673 354.303 54.0608 354.201 53.3229C354.166 53.1386 354.205 52.9481 354.311 52.7929C354.424 52.6833 354.566 52.6071 354.721 52.5729C356.213 52.2088 357.745 52.0341 359.281 52.0529C361.281 52.0029 362.911 51.6729 362.451 54.1429C362.051 56.2629 360.321 58.6729 360.321 60.8429Z" fill="#F7931E"/>
<path d="M115.29 86.8529C114.413 84.8897 112.853 83.3119 110.9 82.4129C108.961 81.5294 106.923 80.8814 104.83 80.4829L97.7102 78.8529C97.0006 78.7429 96.3204 78.4912 95.7102 78.1129C95.1841 77.687 94.7489 77.1599 94.4302 76.5629C91.7263 72.1917 89.3851 67.6064 87.4302 62.8529C87.1402 61.8948 86.5898 61.0362 85.8402 60.3729C85.0202 59.7929 83.5702 59.7829 83.1402 60.6929L81.9802 61.2129C81.6602 63.2929 82.6402 65.3129 83.5502 67.2129C85.6502 71.5529 87.5635 75.9729 89.2902 80.4729C89.517 80.8844 89.6482 81.3416 89.6742 81.8108C89.7001 82.2799 89.6202 82.7489 89.4402 83.1829C89.1384 83.5925 88.7352 83.9164 88.2702 84.1229C85.8602 85.4029 83.2702 86.2629 80.7802 87.3929C78.2379 88.4161 75.9829 90.043 74.2102 92.1329C73.3403 93.1868 72.7527 94.4446 72.5025 95.788C72.2524 97.1315 72.3479 98.5165 72.7802 99.8129C74.0002 102.883 77.3402 104.443 80.3902 105.723L85.9102 108.053C87.1059 108.453 88.1986 109.112 89.1102 109.983C89.6536 110.643 90.089 111.386 90.4002 112.183C94.3303 120.914 96.8872 130.2 97.9802 139.713C99.6906 139.784 101.369 139.237 102.71 138.173C103.176 137.808 103.524 137.314 103.71 136.753C103.823 136.163 103.786 135.554 103.6 134.983C101.54 126.083 97.9302 117.363 98.0602 108.223C98.0299 107.633 98.136 107.045 98.3702 106.503C98.7654 105.901 99.3097 105.412 99.9502 105.083L106.41 101.083C109 99.4729 111.65 97.8129 113.54 95.4229C115.43 93.0329 116.41 89.6929 115.29 86.8529ZM105.98 94.6829C105.142 96.0812 104 97.2737 102.64 98.1729C97.7896 101.666 91.9365 103.491 85.9602 103.373C84.0195 103.432 82.0978 102.977 80.3902 102.053C79.5529 101.582 78.8651 100.885 78.4053 100.041C77.9456 99.1976 77.7324 98.2418 77.7902 97.2829C78.0502 95.2829 79.7202 93.8729 81.3602 92.7529C87.1902 88.7529 95.5102 84.9429 102.66 87.4229C104.108 87.8393 105.351 88.7759 106.15 90.0529C106.497 90.7811 106.663 91.5825 106.634 92.3887C106.604 93.195 106.38 93.9821 105.98 94.6829Z" fill="#F7931E"/>
<path d="M522.191 87.8529C523.067 85.8897 524.627 84.3119 526.581 83.4129C528.519 82.5294 530.557 81.8814 532.651 81.4829L539.771 79.8529C540.48 79.7429 541.16 79.4912 541.771 79.1129C542.297 78.687 542.732 78.1599 543.051 77.5629C545.754 73.1917 548.096 68.6064 550.051 63.8529C550.34 62.8948 550.891 62.0362 551.641 61.3729C552.461 60.7929 553.911 60.7829 554.341 61.6929L555.501 62.2129C555.821 64.2929 554.841 66.3129 553.931 68.2129C551.831 72.5529 549.917 76.9729 548.191 81.4729C547.964 81.8844 547.832 82.3416 547.807 82.8108C547.781 83.2799 547.861 83.7489 548.041 84.1829C548.342 84.5925 548.746 84.9164 549.211 85.1229C551.621 86.4029 554.211 87.2629 556.701 88.3929C559.243 89.4161 561.498 91.043 563.271 93.1329C564.14 94.1868 564.728 95.4446 564.978 96.788C565.228 98.1315 565.133 99.5165 564.701 100.813C563.481 103.883 560.141 105.443 557.091 106.723L551.571 109.053C550.375 109.453 549.282 110.112 548.371 110.983C547.827 111.643 547.392 112.386 547.081 113.183C543.15 121.914 540.594 131.2 539.501 140.713C537.79 140.784 536.111 140.237 534.771 139.173C534.304 138.808 533.957 138.314 533.771 137.753C533.657 137.163 533.695 136.554 533.881 135.983C535.941 127.083 539.551 118.363 539.421 109.223C539.451 108.633 539.345 108.045 539.111 107.503C538.715 106.901 538.171 106.412 537.531 106.083L531.071 102.083C528.481 100.473 525.831 98.8129 523.941 96.4229C522.051 94.0329 521.071 90.6929 522.191 87.8529ZM531.501 95.6829C532.339 97.0812 533.48 98.2737 534.841 99.1729C539.691 102.666 545.544 104.491 551.521 104.373C553.461 104.432 555.383 103.977 557.091 103.053C557.928 102.582 558.616 101.885 559.075 101.041C559.535 100.198 559.748 99.2418 559.691 98.2829C559.431 96.2829 557.761 94.8729 556.121 93.7529C550.291 89.7529 541.971 85.9429 534.821 88.4229C533.373 88.8393 532.13 89.7759 531.331 91.0529C530.983 91.7811 530.817 92.5825 530.847 93.3887C530.876 94.195 531.101 94.9821 531.501 95.6829Z" fill="#F7931E"/>
<path d="M111.56 107.393C111.509 107.989 111.629 108.588 111.905 109.119C112.181 109.65 112.603 110.092 113.12 110.393C113.649 110.67 114.254 110.769 114.844 110.673C115.433 110.577 115.976 110.293 116.39 109.863C116.71 109.477 116.942 109.027 117.07 108.543C117.243 108.011 117.287 107.445 117.2 106.893C116.58 103.553 111.86 104.113 111.56 107.393Z" fill="#F7931E"/>
<path d="M525.921 108.393C525.971 108.989 525.852 109.588 525.576 110.119C525.299 110.65 524.878 111.092 524.361 111.393C523.832 111.67 523.227 111.769 522.637 111.673C522.048 111.577 521.505 111.293 521.091 110.863C520.771 110.477 520.539 110.027 520.411 109.543C520.238 109.011 520.194 108.445 520.281 107.893C520.901 104.553 525.621 105.113 525.921 108.393Z" fill="#F7931E"/>
<path d="M117.79 57.6328C116.553 56.8094 115.137 56.295 113.66 56.1328C108.01 55.2828 100.11 56.7528 98.0502 63.0428C96.7802 66.9128 99.3002 71.3728 103.05 73.0428C106.8 74.7128 111.27 73.8928 114.74 71.7628C117.247 70.3521 119.145 68.0661 120.07 65.3428C120.506 63.9771 120.521 62.5122 120.115 61.1376C119.708 59.763 118.898 58.5421 117.79 57.6328V57.6328ZM116.98 65.7228C116.244 66.8463 115.254 67.7813 114.09 68.4528C112.74 69.3129 111.294 70.0111 109.78 70.5328C108.551 71.0172 107.227 71.2155 105.91 71.1128C105.255 71.0568 104.623 70.8464 104.065 70.4987C103.507 70.1511 103.039 69.6761 102.7 69.1128C102.468 68.592 102.348 68.0281 102.348 67.4578C102.348 66.8875 102.468 66.3236 102.7 65.8028C103.159 64.7573 103.842 63.8253 104.7 63.0728C107.42 60.5628 114.88 57.0728 117.33 61.9328C117.586 62.5451 117.688 63.2107 117.627 63.8714C117.566 64.5321 117.344 65.1678 116.98 65.7228V65.7228Z" fill="#F7931E"/>
<path d="M519.691 58.6328C520.927 57.8094 522.344 57.295 523.821 57.1328C529.471 56.2828 537.371 57.7528 539.431 64.0428C540.701 67.9128 538.181 72.3728 534.431 74.0428C530.681 75.7128 526.211 74.8928 522.741 72.7628C520.234 71.3521 518.336 69.0661 517.411 66.3428C516.975 64.9771 516.96 63.5122 517.366 62.1376C517.773 60.763 518.582 59.5421 519.691 58.6328V58.6328ZM520.501 66.7228C521.237 67.8463 522.227 68.7813 523.391 69.4528C524.741 70.3129 526.187 71.0111 527.701 71.5328C528.93 72.0172 530.253 72.2155 531.571 72.1128C532.226 72.0568 532.858 71.8464 533.416 71.4987C533.974 71.1511 534.442 70.6761 534.781 70.1128C535.013 69.592 535.133 69.0281 535.133 68.4578C535.133 67.8875 535.013 67.3236 534.781 66.8028C534.322 65.7573 533.639 64.8253 532.781 64.0728C530.061 61.5628 522.601 58.0728 520.151 62.9328C519.895 63.5451 519.793 64.2107 519.854 64.8714C519.915 65.5321 520.137 66.1678 520.501 66.7228V66.7228Z" fill="#F7931E"/>
<path d="M85.4302 118.433C84.8065 117.66 84.0316 117.023 83.1529 116.56C82.2742 116.098 81.3102 115.82 80.3202 115.743C74.0202 115.143 67.9502 120.563 65.8102 126.133C64.1802 130.353 64.9702 135.703 68.5102 138.513C69.3016 139.183 70.2581 139.628 71.2802 139.803C72.4502 139.898 73.626 139.713 74.7102 139.263C81.0902 136.973 86.4402 131.173 86.9102 124.403C87.1574 122.299 86.6314 120.177 85.4302 118.433V118.433ZM81.0902 129.723C80.2262 131.87 78.5523 133.59 76.4302 134.513C75.7118 134.882 74.9274 135.105 74.1223 135.168C73.3172 135.232 72.5075 135.135 71.7402 134.883C70.926 134.511 70.225 133.931 69.7085 133.2C69.192 132.469 68.8786 131.614 68.8002 130.723C68.6833 128.932 69.2119 127.158 70.2902 125.723C72.2902 122.953 77.4202 119.723 80.1802 123.233C80.868 124.15 81.3122 125.226 81.4714 126.361C81.6305 127.496 81.4994 128.652 81.0902 129.723Z" fill="#F7931E"/>
<path d="M552.051 119.433C552.674 118.66 553.449 118.023 554.328 117.56C555.207 117.098 556.17 116.82 557.161 116.743C563.461 116.143 569.531 121.563 571.671 127.133C573.301 131.353 572.511 136.703 568.971 139.513C568.179 140.183 567.223 140.628 566.201 140.803C565.031 140.898 563.855 140.713 562.771 140.263C556.391 137.973 551.041 132.173 550.571 125.403C550.323 123.299 550.849 121.177 552.051 119.433V119.433ZM556.391 130.723C557.255 132.87 558.928 134.59 561.051 135.513C561.769 135.882 562.553 136.105 563.358 136.168C564.164 136.232 564.973 136.135 565.741 135.883C566.555 135.511 567.256 134.931 567.772 134.2C568.289 133.469 568.602 132.614 568.681 131.723C568.797 129.932 568.269 128.158 567.191 126.723C565.191 123.953 560.061 120.723 557.301 124.233C556.613 125.15 556.168 126.226 556.009 127.361C555.85 128.496 555.981 129.652 556.391 130.723Z" fill="#F7931E"/>
<path d="M70.8202 78.8829C70.795 79.0473 70.823 79.2155 70.9002 79.3628C71.1202 79.7228 71.6602 79.6029 72.0402 79.4229C73.8391 78.5825 75.4825 77.443 76.9002 76.0529C76.9534 76.0122 76.9977 75.961 77.0304 75.9025C77.0631 75.8441 77.0834 75.7795 77.0902 75.7129C77.0774 75.6003 77.0283 75.4949 76.9502 75.4129C76.3302 74.6529 72.0202 69.4129 71.0302 70.0229C70.0402 70.6329 70.8302 77.7929 70.8202 78.8829Z" fill="#F7931E"/>
<path d="M566.661 79.8829C566.686 80.0473 566.658 80.2155 566.581 80.3628C566.361 80.7228 565.821 80.6029 565.441 80.4229C563.642 79.5825 561.998 78.443 560.581 77.0529C560.527 77.0122 560.483 76.961 560.45 76.9025C560.418 76.8441 560.397 76.7795 560.391 76.7129C560.403 76.6003 560.452 76.4949 560.531 76.4129C561.151 75.6529 565.461 70.4129 566.451 71.0229C567.441 71.6329 566.651 78.7929 566.661 79.8829Z" fill="#F7931E"/>
<path d="M116.66 143.693C116.66 143.993 116.76 144.403 117.07 144.393C117.168 144.374 117.26 144.333 117.34 144.273L123.85 139.893C124.04 139.773 124.26 139.573 124.19 139.363C124.137 139.251 124.049 139.16 123.94 139.103C122.74 138.313 121.52 137.563 120.28 136.833C119.75 136.523 117.28 134.723 116.77 135.093C116.26 135.463 116.66 138.633 116.66 139.283V143.693Z" fill="#008657"/>
<path d="M126.05 112.363C126.102 112.914 126.289 113.444 126.597 113.905C126.904 114.366 127.321 114.743 127.81 115.003C128.386 115.267 129.017 115.39 129.65 115.363C130.507 115.376 131.351 115.153 132.089 114.719C132.828 114.285 133.434 113.657 133.84 112.903C134.152 112.182 134.229 111.381 134.063 110.613C133.896 109.846 133.493 109.15 132.91 108.623C130.1 106.193 125.69 108.823 126.05 112.363Z" fill="#008657"/>
<path d="M511.431 113.363C511.379 113.914 511.191 114.444 510.884 114.905C510.577 115.366 510.16 115.743 509.671 116.003C509.094 116.267 508.464 116.39 507.831 116.363C506.974 116.376 506.13 116.153 505.391 115.719C504.652 115.285 504.047 114.657 503.641 113.903C503.329 113.182 503.251 112.381 503.418 111.613C503.585 110.846 503.988 110.15 504.571 109.623C507.381 107.193 511.791 109.823 511.431 113.363Z" fill="#008657"/>
<path d="M172.19 126.903C172.243 127.454 172.432 127.983 172.739 128.444C173.046 128.904 173.462 129.282 173.95 129.543C174.526 129.807 175.157 129.93 175.79 129.903C176.647 129.914 177.49 129.691 178.229 129.258C178.967 128.824 179.573 128.196 179.98 127.443C180.291 126.72 180.368 125.918 180.202 125.149C180.035 124.38 179.632 123.682 179.05 123.153C176.23 120.723 171.83 123.353 172.19 126.903Z" fill="#F7931E"/>
<path d="M465.291 127.903C465.237 128.454 465.049 128.983 464.742 129.444C464.435 129.904 464.019 130.282 463.531 130.543C462.954 130.807 462.324 130.93 461.691 130.903C460.834 130.914 459.991 130.691 459.252 130.258C458.514 129.824 457.908 129.196 457.501 128.443C457.19 127.72 457.112 126.918 457.279 126.149C457.446 125.38 457.848 124.682 458.431 124.153C461.251 121.723 465.651 124.353 465.291 127.903Z" fill="#F7931E"/>
<path d="M151.62 118.553C151.502 118.616 151.397 118.701 151.31 118.803C151.01 119.203 151.4 119.743 151.77 120.083C153.532 121.665 155.433 123.084 157.45 124.323C157.65 124.443 157.95 124.553 158.09 124.323C158.137 124.241 158.158 124.147 158.15 124.053C158.24 121.643 158.32 119.233 158.41 116.823C158.48 114.823 156.92 115.923 155.79 116.413C154.355 117.035 152.963 117.75 151.62 118.553V118.553Z" fill="#008657"/>
<path d="M485.861 119.553C485.979 119.616 486.084 119.701 486.171 119.803C486.471 120.203 486.081 120.743 485.711 121.083C483.949 122.665 482.048 124.084 480.031 125.323C479.831 125.443 479.531 125.553 479.391 125.323C479.344 125.241 479.323 125.147 479.331 125.053C479.241 122.643 479.161 120.233 479.071 117.823C479.001 115.823 480.561 116.923 481.691 117.413C483.125 118.035 484.518 118.75 485.861 119.553V119.553Z" fill="#008657"/>
<path d="M234.98 32.5629C234.27 34.1229 233.55 35.8829 234.11 37.5029C234.644 38.6651 235.48 39.663 236.53 40.3929C238 41.6529 239.41 42.9929 240.75 44.3929C241.11 44.7179 241.379 45.1316 241.53 45.5929C241.592 46.1237 241.491 46.6609 241.24 47.1329C240.491 48.8741 239.552 50.5274 238.44 52.0629C237.44 53.4629 236.18 54.9529 236.33 56.6829C236.48 58.4129 237.75 59.5129 238.95 60.5829L241.85 63.1829C242.85 64.1029 243.98 65.1829 244.02 66.5529C243.919 67.6719 243.451 68.7263 242.69 69.5529L240.31 72.7829C239.69 73.6329 239.03 74.6529 239.31 75.6629C239.532 76.2272 239.897 76.7237 240.37 77.1029L244.4 81.0529C244.886 81.4458 245.264 81.9548 245.5 82.5329C246.01 84.0829 244.45 85.5329 244.17 87.1229C244.121 87.612 244.186 88.106 244.359 88.5659C244.533 89.0258 244.811 89.4392 245.172 89.7735C245.532 90.1078 245.965 90.354 246.437 90.4927C246.909 90.6314 247.406 90.6588 247.89 90.5729C249.84 90.0929 250.77 87.9229 251.42 86.0229L252.42 83.2029C252.704 82.5978 252.781 81.9162 252.64 81.2629C252.422 80.7634 252.077 80.3292 251.64 80.0029L248.98 77.8129C248.528 77.5262 248.14 77.149 247.84 76.7049C247.541 76.2609 247.336 75.7597 247.24 75.2329C247.341 74.3938 247.689 73.6036 248.24 72.9629C249.298 71.3289 250.123 69.5551 250.69 67.6929C250.951 66.9664 251.047 66.1909 250.97 65.4229C250.637 64.2369 249.937 63.1869 248.97 62.4229L244.41 58.0529C243.845 57.6147 243.432 57.0093 243.23 56.3229C243.217 55.8271 243.302 55.3336 243.483 54.8715C243.663 54.4095 243.934 53.9883 244.28 53.6329C245.915 51.357 247.215 48.8582 248.14 46.2129C248.369 45.6914 248.459 45.1194 248.4 44.5529C248.248 43.9846 247.948 43.467 247.53 43.0529C245.983 41.276 244.204 39.7153 242.24 38.4129C241.31 37.8029 240.24 37.1229 240.04 36.0229C239.985 35.0882 240.269 34.165 240.84 33.4229C242.136 31.5857 243.088 29.5292 243.65 27.3529C243.705 27.1983 243.721 27.0326 243.696 26.8704C243.672 26.7082 243.608 26.5545 243.51 26.4229C243.29 26.2655 243.02 26.1911 242.75 26.2129C241.07 26.2129 238.6 25.5529 237.55 26.7829C236.35 28.1929 235.7 30.8729 234.98 32.5629Z" fill="#008657"/>
<path d="M402.501 33.5629C403.211 35.1229 403.931 36.8829 403.371 38.5029C402.836 39.6651 402.001 40.663 400.951 41.3929C399.481 42.6529 398.071 43.9929 396.731 45.3929C396.37 45.7179 396.101 46.1316 395.951 46.5929C395.888 47.1237 395.99 47.6609 396.241 48.1329C396.99 49.8741 397.929 51.5274 399.041 53.0629C400.041 54.4629 401.301 55.9529 401.151 57.6829C401.001 59.4129 399.731 60.5129 398.531 61.5829L395.631 64.1829C394.631 65.1029 393.501 66.1829 393.461 67.5529C393.562 68.6719 394.029 69.7263 394.791 70.5529L397.171 73.7829C397.791 74.6329 398.451 75.6529 398.171 76.6629C397.949 77.2272 397.584 77.7237 397.111 78.1029L393.081 82.0529C392.595 82.4458 392.217 82.9548 391.981 83.5329C391.471 85.0829 393.031 86.5329 393.311 88.1229C393.36 88.612 393.295 89.106 393.121 89.5659C392.948 90.0258 392.669 90.4392 392.309 90.7735C391.948 91.1078 391.515 91.354 391.044 91.4927C390.572 91.6314 390.075 91.6588 389.591 91.5729C387.641 91.0929 386.711 88.9229 386.061 87.0229L385.061 84.2029C384.777 83.5978 384.699 82.9162 384.841 82.2629C385.059 81.7634 385.404 81.3292 385.841 81.0029L388.501 78.8129C388.953 78.5262 389.341 78.149 389.641 77.7049C389.94 77.2609 390.144 76.7597 390.241 76.2329C390.14 75.3938 389.792 74.6036 389.241 73.9629C388.182 72.3289 387.358 70.5551 386.791 68.6929C386.53 67.9664 386.434 67.1909 386.511 66.4229C386.844 65.2369 387.544 64.1869 388.511 63.4229L393.071 59.0529C393.636 58.6147 394.049 58.0093 394.251 57.3229C394.264 56.8271 394.178 56.3336 393.998 55.8715C393.818 55.4095 393.546 54.9883 393.201 54.6329C391.565 52.357 390.265 49.8582 389.341 47.2129C389.112 46.6914 389.022 46.1194 389.081 45.5529C389.233 44.9846 389.533 44.467 389.951 44.0529C391.498 42.276 393.277 40.7153 395.241 39.4129C396.171 38.8029 397.241 38.1229 397.441 37.0229C397.495 36.0882 397.211 35.165 396.641 34.4229C395.345 32.5857 394.393 30.5292 393.831 28.3529C393.776 28.1983 393.76 28.0326 393.784 27.8704C393.809 27.7082 393.873 27.5545 393.971 27.4229C394.191 27.2655 394.46 27.1911 394.731 27.2129C396.411 27.2129 398.881 26.5529 399.931 27.7829C401.131 29.1929 401.781 31.8729 402.501 33.5629Z" fill="#008657"/>
<path d="M250.74 33.0529C250.172 33.9215 249.928 34.9622 250.05 35.9929C250.297 36.6925 250.717 37.3185 251.27 37.8129L256.09 42.9029C256.552 43.3165 256.915 43.8293 257.15 44.4029C257.332 45.1884 257.233 46.0128 256.87 46.7329C256.104 48.2 255.249 49.6193 254.31 50.9829C253.367 52.3699 253.007 54.0728 253.31 55.7229C253.625 56.6749 254.136 57.5503 254.81 58.2929C256.149 59.9554 257.614 61.5133 259.19 62.9529C259.9 63.6029 260.7 64.3629 260.66 65.3229C260.613 65.8069 260.452 66.273 260.19 66.6829L258.04 70.7729C257.511 71.5951 257.213 72.5454 257.18 73.5229C257.29 74.4108 257.655 75.2478 258.23 75.9329C259.103 77.1341 260.136 78.2107 261.3 79.1329C262.2 79.8429 263.25 80.5729 263.49 81.6929C263.84 83.4229 262.1 84.8029 261.49 86.4429C261.366 86.6834 261.337 86.9621 261.41 87.2229C261.509 87.4151 261.657 87.5774 261.84 87.6929C262.35 88.1029 262.84 88.5029 263.39 88.9029C263.591 89.1113 263.834 89.2737 264.103 89.379C264.373 89.4844 264.662 89.53 264.95 89.5129C265.316 89.3898 265.636 89.1599 265.87 88.8529C267.874 86.6632 269.354 84.0475 270.2 81.2029C270.366 80.7594 270.411 80.2795 270.33 79.8129C270.15 79.319 269.835 78.8859 269.42 78.5629L265.63 75.0529C264.63 74.1429 263.63 73.0529 263.57 71.7829C263.653 70.7267 264.031 69.715 264.66 68.8629C265.647 67.1461 266.448 65.3292 267.05 63.4429C267.328 62.7623 267.408 62.0169 267.28 61.2929C266.948 60.4115 266.333 59.6656 265.53 59.1729L260.76 55.4929C260.11 54.9829 259.38 54.3229 259.46 53.4929C259.535 53.1287 259.692 52.7866 259.92 52.4929C261.22 50.4018 262.36 48.2156 263.33 45.9529C263.875 44.9842 264.062 43.8555 263.86 42.7629C263.641 42.1693 263.3 41.6279 262.86 41.1729C261.521 39.5834 260.038 38.1206 258.43 36.8029C257.84 36.4143 257.372 35.8665 257.08 35.2229C256.69 34.0829 257.5 32.9329 258.13 31.9129C259.193 30.2131 259.897 28.3143 260.2 26.3329C260.251 26.1408 260.261 25.9402 260.23 25.7439C260.199 25.5476 260.128 25.3599 260.02 25.1929C259.836 25.0201 259.608 24.9023 259.36 24.8529C257.29 24.2629 255.56 24.0629 254.36 25.9729C252.98 28.1229 251.98 30.6829 250.74 33.0529Z" fill="#008657"/>
<path d="M386.741 34.0529C387.309 34.9215 387.553 35.9622 387.431 36.9929C387.183 37.6925 386.764 38.3185 386.211 38.8129L381.391 43.9029C380.929 44.3165 380.566 44.8293 380.331 45.4029C380.149 46.1884 380.248 47.0128 380.611 47.7329C381.377 49.2 382.232 50.6193 383.171 51.9829C384.114 53.3699 384.473 55.0728 384.171 56.7229C383.856 57.6749 383.345 58.5503 382.671 59.2929C381.331 60.9554 379.867 62.5133 378.291 63.9529C377.581 64.6029 376.781 65.3629 376.821 66.3229C376.868 66.8069 377.029 67.273 377.291 67.6829L379.441 71.7729C379.97 72.5951 380.267 73.5454 380.301 74.5229C380.191 75.4108 379.826 76.2478 379.251 76.9329C378.377 78.1341 377.345 79.2107 376.181 80.1329C375.281 80.8429 374.231 81.5729 373.991 82.6929C373.641 84.4229 375.381 85.8029 375.991 87.4429C376.115 87.6834 376.144 87.9621 376.071 88.2229C375.972 88.4151 375.823 88.5774 375.641 88.6929C375.131 89.1029 374.641 89.5029 374.091 89.9029C373.89 90.1113 373.647 90.2737 373.377 90.379C373.108 90.4844 372.819 90.53 372.531 90.5129C372.165 90.3898 371.844 90.1599 371.611 89.8529C369.607 87.6632 368.127 85.0475 367.281 82.2029C367.114 81.7594 367.069 81.2795 367.151 80.8129C367.331 80.319 367.646 79.8859 368.061 79.5629L371.851 76.0529C372.851 75.1429 373.851 74.0529 373.911 72.7829C373.828 71.7267 373.45 70.715 372.821 69.8629C371.834 68.1461 371.033 66.3292 370.431 64.4429C370.152 63.7623 370.072 63.0169 370.201 62.2929C370.532 61.4115 371.148 60.6656 371.951 60.1729L376.721 56.4929C377.371 55.9829 378.101 55.3229 378.021 54.4929C377.946 54.1287 377.788 53.7866 377.561 53.4929C376.261 51.4018 375.121 49.2156 374.151 46.9529C373.606 45.9842 373.419 44.8555 373.621 43.7629C373.84 43.1693 374.181 42.6279 374.621 42.1729C375.96 40.5834 377.443 39.1206 379.051 37.8029C379.641 37.4143 380.109 36.8665 380.401 36.2229C380.791 35.0829 379.981 33.9329 379.351 32.9129C378.288 31.2131 377.584 29.3143 377.281 27.3329C377.23 27.1408 377.219 26.9402 377.25 26.7439C377.281 26.5476 377.353 26.3599 377.461 26.1929C377.644 26.0201 377.873 25.9023 378.121 25.8529C380.191 25.2629 381.921 25.0629 383.121 26.9729C384.501 29.1229 385.501 31.6829 386.741 34.0529Z" fill="#008657"/>
<path d="M228.46 58.8628C228.05 54.6028 227.08 50.2428 224.46 46.8628C218.2 38.6628 206.63 42.4428 202.81 50.8628C200.81 55.1928 200.64 60.1128 201.02 64.8628C201.179 68.4041 202.021 71.8812 203.5 75.1028C204.25 76.7087 205.316 78.1471 206.634 79.3325C207.951 80.5179 209.494 81.4261 211.17 82.0028C216.64 83.6328 222.69 80.3128 225.65 75.4328C228.61 70.5528 228.98 64.5328 228.46 58.8628ZM222.67 69.9428C222.321 71.8994 221.535 73.752 220.37 75.3628C219.785 76.1644 219.019 76.8173 218.135 77.2689C217.251 77.7205 216.273 77.9582 215.28 77.9628C214.29 77.924 213.345 77.5364 212.613 76.8685C211.881 76.2005 211.409 75.2953 211.28 74.3128C211.18 72.5628 212.39 70.7328 211.63 69.1628C211.2 68.2628 210.25 67.7528 209.63 67.0028C208.999 66.2218 208.684 65.2318 208.749 64.2295C208.814 63.2271 209.253 62.2859 209.98 61.5928C211.23 60.4728 213.4 59.8328 213.37 58.1428C213.34 56.4528 210.91 55.8428 209.85 54.4428C208.12 52.1728 210.44 48.8728 212.43 47.6228C214.7 46.1928 217.77 47.6228 219.49 49.3528C221.245 51.3792 222.398 53.8557 222.82 56.5028C223.736 60.9416 223.685 65.5255 222.67 69.9428V69.9428Z" fill="white"/>
<path d="M409.021 59.8628C409.431 55.6028 410.401 51.2428 413.021 47.8628C419.281 39.6628 430.851 43.4428 434.671 51.8628C436.671 56.1928 436.841 61.1128 436.461 65.8628C436.302 69.4041 435.459 72.8812 433.981 76.1028C433.23 77.7087 432.165 79.1471 430.847 80.3325C429.529 81.5179 427.987 82.4261 426.311 83.0028C420.841 84.6328 414.791 81.3128 411.831 76.4328C408.871 71.5528 408.501 65.5328 409.021 59.8628ZM414.811 70.9428C415.16 72.8994 415.946 74.752 417.111 76.3628C417.696 77.1644 418.462 77.8173 419.346 78.2689C420.23 78.7205 421.208 78.9582 422.201 78.9628C423.191 78.924 424.135 78.5364 424.867 77.8685C425.599 77.2005 426.072 76.2953 426.201 75.3128C426.301 73.5628 425.091 71.7328 425.851 70.1628C426.281 69.2628 427.231 68.7528 427.851 68.0028C428.482 67.2218 428.797 66.2318 428.732 65.2295C428.667 64.2271 428.227 63.2859 427.501 62.5928C426.251 61.4728 424.081 60.8328 424.111 59.1428C424.141 57.4528 426.571 56.8428 427.631 55.4428C429.361 53.1728 427.041 49.8728 425.051 48.6228C422.781 47.1928 419.711 48.6228 417.991 50.3528C416.236 52.3792 415.082 54.8557 414.661 57.5028C413.745 61.9416 413.796 66.5255 414.811 70.9428V70.9428Z" fill="white"/>
<path d="M281.45 5.8028C281.087 6.04795 280.804 6.39618 280.64 6.8028C280.57 7.19478 280.619 7.59868 280.78 7.9628C281.499 9.65316 282.515 11.201 283.78 12.5328L291.24 21.4228C291.509 21.7062 291.708 22.0487 291.82 22.4228C292.08 23.4728 290.97 24.3128 290.03 24.8428C284.989 27.6806 280.16 30.879 275.58 34.4128C275.322 34.5634 275.114 34.7858 274.98 35.0528C274.945 35.2725 274.958 35.4973 275.018 35.7114C275.079 35.9256 275.185 36.124 275.33 36.2928C276.244 37.6669 277.293 38.9465 278.46 40.1128C278.62 40.3096 278.849 40.4383 279.1 40.4728C279.359 40.4432 279.595 40.3141 279.76 40.1128L291.08 29.5228C291.776 28.7369 292.676 28.159 293.68 27.8528C295.55 27.4728 297.23 28.9628 298.56 30.3328L308.46 40.6028C308.619 40.7981 308.831 40.9439 309.07 41.0228C309.254 41.036 309.439 41.0089 309.612 40.9432C309.785 40.8776 309.941 40.7751 310.07 40.6428C310.999 39.9093 311.871 39.107 312.68 38.2428C313.032 37.9258 313.288 37.5172 313.42 37.0628C313.61 36.0628 312.62 35.2128 311.74 34.6428C307.41 31.8328 303.03 28.9528 299.52 25.1628C299.154 24.84 298.907 24.4031 298.82 23.9228C298.76 23.2128 299.35 22.6428 299.89 22.1828C303.568 19.0029 307.08 15.6351 310.41 12.0928C310.733 11.819 310.949 11.4401 311.02 11.0228C311.003 10.6558 310.866 10.3045 310.63 10.0228C309.768 8.76777 308.723 7.64872 307.53 6.7028C307.35 6.53886 307.134 6.41903 306.9 6.3528C306.38 6.2628 305.9 6.7028 305.58 7.1028C302.548 10.5236 299.2 13.6508 295.58 16.4428C295.477 16.5474 295.354 16.6298 295.218 16.6849C295.083 16.7399 294.937 16.7664 294.79 16.7628C294.48 16.7628 294.28 16.4328 294.11 16.1628C291.797 12.5028 289.664 8.74613 287.71 4.8928C286.17 1.9328 283.33 4.2928 281.45 5.8028Z" fill="#E00102"/>
<path d="M356.031 6.8028C356.394 7.04795 356.676 7.39618 356.841 7.8028C356.91 8.19478 356.862 8.59868 356.701 8.9628C355.982 10.6532 354.966 12.201 353.701 13.5328L346.241 22.4228C345.972 22.7062 345.773 23.0487 345.661 23.4228C345.401 24.4728 346.511 25.3128 347.451 25.8428C352.491 28.6806 357.321 31.879 361.901 35.4128C362.158 35.5634 362.367 35.7858 362.501 36.0528C362.536 36.2725 362.523 36.4973 362.462 36.7114C362.402 36.9256 362.296 37.124 362.151 37.2928C361.237 38.6669 360.188 39.9465 359.021 41.1128C358.861 41.3096 358.632 41.4383 358.381 41.4728C358.122 41.4432 357.885 41.3141 357.721 41.1128L346.401 30.5228C345.705 29.7369 344.805 29.159 343.801 28.8528C341.931 28.4728 340.251 29.9628 338.921 31.3328L329.021 41.6028C328.861 41.7981 328.65 41.9439 328.411 42.0228C328.226 42.036 328.041 42.0089 327.869 41.9432C327.696 41.8776 327.54 41.7751 327.411 41.6428C326.482 40.9093 325.609 40.107 324.801 39.2428C324.449 38.9258 324.193 38.5172 324.061 38.0628C323.871 37.0628 324.861 36.2128 325.741 35.6428C330.071 32.8328 334.451 29.9528 337.961 26.1628C338.327 25.84 338.573 25.4031 338.661 24.9228C338.721 24.2128 338.131 23.6428 337.591 23.1828C333.912 20.0029 330.401 16.6351 327.071 13.0928C326.748 12.819 326.532 12.4401 326.461 12.0228C326.478 11.6558 326.615 11.3045 326.851 11.0228C327.713 9.76777 328.757 8.64872 329.951 7.7028C330.131 7.53886 330.346 7.41903 330.581 7.3528C331.101 7.2628 331.581 7.7028 331.901 8.1028C334.933 11.5236 338.281 14.6508 341.901 17.4428C342.003 17.5474 342.126 17.6298 342.262 17.6849C342.398 17.7399 342.544 17.7664 342.691 17.7628C343.001 17.7628 343.201 17.4328 343.371 17.1628C345.684 13.5028 347.817 9.74613 349.771 5.8928C351.311 2.9328 354.151 5.2928 356.031 6.8028Z" fill="#E00102"/>
<path d="M294.42 3.92284C294.562 4.56097 294.891 5.14218 295.366 5.59189C295.84 6.0416 296.438 6.33928 297.083 6.44675C297.728 6.55422 298.39 6.46656 298.985 6.19503C299.579 5.92351 300.079 5.48049 300.42 4.92284C300.65 4.5584 300.8 4.14942 300.86 3.72284C300.911 3.25307 300.859 2.77783 300.707 2.33041C300.555 1.883 300.307 1.47426 299.98 1.13284C299.516 0.584834 298.882 0.20869 298.179 0.0648734C297.475 -0.0789433 296.744 0.017922 296.102 0.339897C295.461 0.661873 294.946 1.19025 294.641 1.8401C294.336 2.48994 294.258 3.2235 294.42 3.92284V3.92284Z" fill="#E00102"/>
<path d="M343.061 4.92284C342.919 5.56097 342.59 6.14218 342.115 6.59189C341.641 7.0416 341.043 7.33928 340.398 7.44675C339.753 7.55422 339.091 7.46656 338.496 7.19503C337.902 6.92351 337.402 6.48049 337.061 5.92284C336.831 5.5584 336.681 5.14942 336.621 4.72284C336.569 4.25307 336.622 3.77783 336.774 3.33041C336.926 2.883 337.174 2.47426 337.501 2.13284C337.964 1.58483 338.599 1.20869 339.302 1.06487C340.006 0.921057 340.737 1.01792 341.378 1.3399C342.02 1.66187 342.535 2.19025 342.84 2.8401C343.145 3.48994 343.223 4.2235 343.061 4.92284V4.92284Z" fill="#E00102"/>
<path d="M290.49 41.4828C290.706 42.2665 291.156 42.9658 291.779 43.4874C292.403 44.0091 293.171 44.3284 293.98 44.4028C294.788 44.4539 295.59 44.235 296.259 43.7806C296.929 43.3263 297.429 42.6622 297.68 41.8928C297.838 41.2726 297.882 40.6288 297.81 39.9928C297.774 39.2755 297.597 38.5722 297.29 37.9228C294.9 33.1828 289.32 37.1828 290.49 41.4828Z" fill="#E00102"/>
<path d="M346.991 42.4828C346.774 43.2665 346.325 43.9658 345.701 44.4874C345.078 45.0091 344.31 45.3284 343.501 45.4028C342.693 45.4539 341.891 45.235 341.221 44.7806C340.551 44.3263 340.052 43.6622 339.801 42.8928C339.642 42.2726 339.598 41.6288 339.671 40.9928C339.707 40.2755 339.884 39.5722 340.191 38.9228C342.581 34.1828 348.161 38.1828 346.991 42.4828Z" fill="#E00102"/>
<path d="M275.08 20.6428C275.159 21.3931 275.487 22.0957 276.01 22.639C276.533 23.1824 277.223 23.5357 277.97 23.6428C278.47 23.6802 278.972 23.6103 279.443 23.4378C279.914 23.2654 280.343 22.9943 280.7 22.6428C281.406 21.9373 281.88 21.034 282.06 20.0528C282.16 19.5713 282.16 19.0743 282.06 18.5928C281.921 18.068 281.642 17.5908 281.253 17.2122C280.863 16.8335 280.379 16.5676 279.85 16.4428C279.247 16.323 278.625 16.3438 278.031 16.5035C277.437 16.6633 276.889 16.9577 276.427 17.364C275.966 17.7702 275.604 18.2774 275.371 18.846C275.137 19.4147 275.038 20.0295 275.08 20.6428V20.6428Z" fill="#E00102"/>
<path d="M362.401 21.6428C362.321 22.3931 361.994 23.0957 361.471 23.639C360.947 24.1824 360.257 24.5357 359.511 24.6428C359.011 24.6802 358.508 24.6103 358.037 24.4378C357.567 24.2654 357.138 23.9943 356.781 23.6428C356.075 22.9373 355.601 22.034 355.421 21.0528C355.321 20.5713 355.321 20.0743 355.421 19.5928C355.56 19.068 355.839 18.5908 356.228 18.2122C356.617 17.8335 357.102 17.5676 357.631 17.4428C358.234 17.323 358.856 17.3438 359.45 17.5035C360.043 17.6633 360.592 17.9577 361.053 18.364C361.515 18.7702 361.876 19.2774 362.11 19.846C362.344 20.4147 362.443 21.0295 362.401 21.6428V21.6428Z" fill="#E00102"/>
<path d="M309.27 21.4628C309.116 22.0554 309.088 22.6735 309.186 23.2778C309.284 23.8821 309.507 24.4594 309.84 24.9728C310.182 25.4759 310.656 25.8747 311.21 26.1253C311.764 26.3758 312.377 26.4684 312.98 26.3928C313.771 26.1701 314.473 25.705 314.986 25.0628C315.499 24.4206 315.798 23.6337 315.84 22.8128C315.914 22.3469 315.894 21.8711 315.782 21.4128C315.671 20.9545 315.47 20.5229 315.19 20.1428C314.797 19.6469 314.272 19.2719 313.675 19.0605C313.078 18.8492 312.434 18.8102 311.817 18.948C311.199 19.0857 310.632 19.3947 310.182 19.8394C309.732 20.2842 309.416 20.8468 309.27 21.4628Z" fill="#E00102"/>
<path d="M328.211 22.4628C328.364 23.0554 328.393 23.6735 328.295 24.2778C328.197 24.8821 327.974 25.4594 327.641 25.9728C327.299 26.4759 326.825 26.8747 326.271 27.1253C325.717 27.3758 325.104 27.4684 324.501 27.3928C323.709 27.1701 323.008 26.705 322.495 26.0628C321.982 25.4206 321.683 24.6337 321.641 23.8128C321.567 23.3469 321.587 22.8711 321.698 22.4128C321.81 21.9545 322.011 21.5229 322.291 21.1428C322.684 20.6469 323.209 20.2719 323.806 20.0605C324.402 19.8492 325.046 19.8102 325.664 19.948C326.282 20.0857 326.848 20.3947 327.299 20.8394C327.749 21.2842 328.065 21.8468 328.211 22.4628Z" fill="#E00102"/>
<path d="M199.75 92.6229C198.853 91.4413 197.683 90.4944 196.34 89.8629C191.28 87.1929 183.34 85.9929 179.34 91.2529C176.86 94.4929 177.78 99.5429 180.76 102.323C183.74 105.103 188.25 105.813 192.23 104.943C195.06 104.436 197.603 102.901 199.37 100.633C200.222 99.4864 200.713 98.1123 200.781 96.6858C200.848 95.2592 200.49 93.8448 199.75 92.6229V92.6229ZM196.27 99.9929C195.206 100.81 193.967 101.368 192.65 101.623C191.094 101.991 189.5 102.176 187.9 102.173C186.582 102.22 185.269 101.971 184.06 101.443C183.453 101.17 182.921 100.755 182.508 100.233C182.096 99.7106 181.815 99.0966 181.69 98.4429C181.624 97.8785 181.679 97.3065 181.852 96.7651C182.024 96.2237 182.31 95.7252 182.69 95.3029C183.461 94.4621 184.411 93.8059 185.47 93.3829C188.87 91.9029 197.06 91.0729 197.78 96.4429C197.843 97.1134 197.737 97.789 197.474 98.4087C197.21 99.0284 196.797 99.5728 196.27 99.9929V99.9929Z" fill="white"/>
<path d="M437.731 93.6229C438.628 92.4413 439.798 91.4944 441.141 90.8629C446.201 88.1929 454.141 86.9929 458.141 92.2529C460.621 95.4929 459.701 100.543 456.721 103.323C453.741 106.103 449.231 106.813 445.251 105.943C442.421 105.436 439.878 103.901 438.111 101.633C437.259 100.486 436.768 99.1123 436.7 97.6858C436.632 96.2592 436.991 94.8448 437.731 93.6229V93.6229ZM441.211 100.993C442.274 101.81 443.514 102.368 444.831 102.623C446.387 102.991 447.981 103.176 449.581 103.173C450.899 103.22 452.211 102.971 453.421 102.443C454.028 102.17 454.56 101.755 454.973 101.233C455.385 100.711 455.666 100.097 455.791 99.4429C455.856 98.8785 455.801 98.3065 455.629 97.7651C455.456 97.2237 455.171 96.7252 454.791 96.3029C454.02 95.4621 453.07 94.8059 452.011 94.3829C448.611 92.9029 440.421 92.0729 439.701 97.4429C439.638 98.1134 439.743 98.789 440.007 99.4087C440.271 100.028 440.684 100.573 441.211 100.993V100.993Z" fill="white"/>
<path d="M249.77 104.923C248.986 103.659 247.909 102.602 246.63 101.843C241.85 98.7028 234.06 96.7428 229.57 101.593C226.79 104.593 227.22 109.693 229.92 112.753C232.62 115.813 237.04 116.943 241.09 116.463C243.955 116.223 246.632 114.938 248.61 112.853C249.569 111.795 250.191 110.477 250.398 109.064C250.604 107.652 250.386 106.211 249.77 104.923V104.923ZM245.6 111.923C244.463 112.634 243.175 113.069 241.84 113.193C240.253 113.413 238.645 113.443 237.05 113.283C235.734 113.208 234.452 112.835 233.3 112.193C232.727 111.866 232.24 111.407 231.879 110.854C231.519 110.301 231.297 109.67 231.23 109.013C231.227 108.447 231.344 107.887 231.573 107.37C231.803 106.853 232.139 106.39 232.56 106.013C233.422 105.245 234.448 104.684 235.56 104.373C239.08 103.223 247.31 103.183 247.56 108.593C247.535 109.267 247.343 109.924 247.001 110.505C246.658 111.087 246.177 111.574 245.6 111.923V111.923Z" fill="#E00102"/>
<path d="M387.711 105.923C388.495 104.659 389.572 103.602 390.851 102.843C395.631 99.7028 403.421 97.7428 407.911 102.593C410.691 105.593 410.261 110.693 407.561 113.753C404.861 116.813 400.441 117.943 396.391 117.463C393.526 117.223 390.849 115.938 388.871 113.853C387.912 112.795 387.29 111.477 387.083 110.064C386.877 108.652 387.095 107.211 387.711 105.923V105.923ZM391.881 112.923C393.018 113.634 394.305 114.069 395.641 114.193C397.228 114.413 398.836 114.443 400.431 114.283C401.747 114.208 403.029 113.835 404.181 113.193C404.754 112.866 405.241 112.407 405.601 111.854C405.961 111.301 406.184 110.67 406.251 110.013C406.254 109.447 406.137 108.887 405.907 108.37C405.678 107.853 405.342 107.39 404.921 107.013C404.059 106.245 403.033 105.684 401.921 105.373C398.401 104.223 390.171 104.183 389.921 109.593C389.946 110.267 390.138 110.924 390.48 111.505C390.822 112.087 391.304 112.574 391.881 112.923V112.923Z" fill="#E00102"/>
<path d="M60.3702 56.7529C60.5902 56.3229 60.1002 55.8829 59.6802 55.6429C47.8524 48.8186 36.9129 40.5594 27.1102 31.0529C30.2202 30.2929 33.0502 29.5629 36.1102 28.7929C36.3094 28.715 36.5229 28.6802 36.7366 28.6905C36.9503 28.7008 37.1593 28.7562 37.3502 28.8529C37.5757 29.0825 37.7257 29.3756 37.7802 29.6929C38.6402 33.0262 39.3602 36.3595 39.9402 39.6929L50.3002 39.2629C50.5253 39.231 50.7546 39.2769 50.9502 39.3929C51.0339 39.4842 51.0983 39.5915 51.1396 39.7084C51.1808 39.8252 51.198 39.9492 51.1902 40.0729C51.4102 42.9729 51.5402 45.8629 51.5902 48.7629L60.5902 46.8829C60.6202 50.0529 60.7502 53.6429 60.3702 56.7529Z" fill="white"/>
<path d="M577.111 57.7529C576.891 57.3229 577.381 56.8829 577.801 56.6429C589.628 49.8186 600.568 41.5594 610.371 32.0529C607.261 31.2929 604.431 30.5629 601.371 29.7929C601.171 29.715 600.958 29.6802 600.744 29.6905C600.53 29.7008 600.321 29.7562 600.131 29.8529C599.905 30.0825 599.755 30.3756 599.701 30.6929C598.841 34.0262 598.121 37.3595 597.541 40.6929L587.181 40.2629C586.955 40.231 586.726 40.2769 586.531 40.3929C586.447 40.4842 586.382 40.5915 586.341 40.7084C586.3 40.8252 586.283 40.9492 586.291 41.0729C586.071 43.9729 585.941 46.8629 585.891 49.7629L576.891 47.8829C576.861 51.0529 576.731 54.6429 577.111 57.7529Z" fill="white"/>
<path d="M56.1202 78.8529L33.3402 55.9329C28.8202 51.3929 24.3402 46.8429 19.6402 42.4329C17.7689 40.838 16.1445 38.9744 14.8202 36.9029C14.5896 36.5671 14.4642 36.1702 14.4602 35.7629C14.5333 35.3507 14.7125 34.9647 14.9802 34.6429L17.9002 30.1929C22.5202 34.8929 27.1802 39.4929 31.7802 44.1929L40.3902 53.0529L61.2202 74.4529C61.3508 74.5297 61.4591 74.6393 61.5344 74.7708C61.6097 74.9024 61.6493 75.0513 61.6493 75.2029C61.6493 75.3544 61.6097 75.5034 61.5344 75.6349C61.4591 75.7665 61.3508 75.8761 61.2202 75.9529C59.7602 77.4929 58.2402 79.0529 56.1202 78.8529Z" fill="white"/>
<path d="M581.361 79.8529L604.141 56.9329C608.661 52.3929 613.141 47.8429 617.841 43.4329C619.712 41.838 621.336 39.9744 622.661 37.9029C622.891 37.5671 623.016 37.1702 623.021 36.7629C622.947 36.3507 622.768 35.9647 622.501 35.6429L619.581 31.1929C614.961 35.8929 610.301 40.4929 605.701 45.1929L597.091 54.0529L576.261 75.4529C576.13 75.5297 576.022 75.6393 575.946 75.7708C575.871 75.9024 575.831 76.0513 575.831 76.2029C575.831 76.3544 575.871 76.5034 575.946 76.6349C576.022 76.7665 576.13 76.8761 576.261 76.9529C577.721 78.4929 579.241 80.0529 581.361 79.8529Z" fill="white"/>
<path d="M43.8702 74.9529C40.4653 76.4438 36.8977 77.5312 33.2402 78.1929L31.3802 66.2929C28.3761 66.6811 25.3491 66.8649 22.3202 66.8429C22.0746 66.8668 21.8288 66.7991 21.6302 66.6529C21.4883 66.4702 21.414 66.2441 21.4202 66.0129L20.6702 55.5129L12.9802 56.7329C12.8287 53.1708 12.9189 49.6027 13.2502 46.0529C21.3602 54.3529 30.0702 61.7329 38.8702 69.3029C40.7371 70.999 42.4137 72.8935 43.8702 74.9529V74.9529Z" fill="white"/>
<path d="M593.611 75.9529C597.015 77.4438 600.583 78.5312 604.241 79.1929L606.101 67.2929C609.105 67.6811 612.132 67.8649 615.161 67.8429C615.406 67.8668 615.652 67.7991 615.851 67.6529C615.992 67.4702 616.067 67.2441 616.061 67.0129L616.811 56.5129L624.501 57.7329C624.652 54.1708 624.562 50.6027 624.231 47.0529C616.121 55.3529 607.411 62.7329 598.611 70.3029C596.744 71.999 595.067 73.8935 593.611 75.9529V75.9529Z" fill="white"/>
<path d="M0.410169 41.2928C0.225948 42.0206 0.257377 42.7862 0.500628 43.4964C0.743879 44.2066 1.18845 44.8308 1.78017 45.2928C2.53985 45.7882 3.40763 46.0935 4.31017 46.1828C4.86425 46.2979 5.43608 46.2979 5.99017 46.1828C6.42011 46.0513 6.81374 45.822 7.14017 45.5128C7.79925 44.901 8.24512 44.0943 8.41247 43.2107C8.57983 42.3271 8.45987 41.4132 8.07017 40.6028C7.69223 39.8684 7.10377 39.2635 6.38009 38.8655C5.65641 38.4675 4.83042 38.2944 4.00783 38.3685C3.18525 38.4426 2.40348 38.7605 1.76258 39.2814C1.12167 39.8024 0.650783 40.5027 0.410169 41.2928V41.2928Z" fill="white"/>
<path d="M637.071 42.2928C637.255 43.0206 637.223 43.7862 636.98 44.4964C636.737 45.2066 636.292 45.8308 635.701 46.2928C634.941 46.7882 634.073 47.0935 633.171 47.1828C632.616 47.2979 632.045 47.2979 631.491 47.1828C631.061 47.0513 630.667 46.822 630.341 46.5128C629.681 45.901 629.236 45.0943 629.068 44.2107C628.901 43.3271 629.021 42.4132 629.411 41.6028C629.788 40.8684 630.377 40.2635 631.101 39.8655C631.824 39.4675 632.65 39.2944 633.473 39.3685C634.295 39.4426 635.077 39.7605 635.718 40.2814C636.359 40.8024 636.83 41.5027 637.071 42.2928V42.2928Z" fill="white"/>
<path d="M51.7002 33.3228C51.7693 34.1673 52.1217 34.9636 52.7002 35.5828C53.3846 36.2865 54.2833 36.743 55.2553 36.8806C56.2272 37.0182 57.2174 36.829 58.0702 36.3428C58.8909 35.8071 59.4938 34.9963 59.7706 34.0561C60.0473 33.1158 59.9798 32.1077 59.5802 31.2128C57.7702 27.5228 51.3802 29.0528 51.7002 33.3228Z" fill="white"/>
<path d="M585.781 34.3228C585.711 35.1673 585.359 35.9636 584.781 36.5828C584.096 37.2865 583.197 37.743 582.225 37.8806C581.253 38.0182 580.263 37.829 579.411 37.3428C578.59 36.8071 577.987 35.9963 577.71 35.0561C577.433 34.1158 577.501 33.1077 577.901 32.2128C579.711 28.5228 586.101 30.0528 585.781 34.3228Z" fill="white"/>
<path d="M40.9802 82.1228C41.0927 82.8191 41.3436 83.4857 41.718 84.0834C42.0924 84.6811 42.5828 85.1978 43.1602 85.6028C43.624 85.9638 44.149 86.2382 44.7102 86.4128C45.4865 86.5912 46.2994 86.5177 47.0312 86.2031C47.763 85.8885 48.3756 85.349 48.7802 84.6628C49.1606 83.9626 49.3369 83.1697 49.2892 82.3742C49.2415 81.5787 48.9716 80.8126 48.5102 80.1628C46.3302 77.0528 40.4302 77.5228 40.9802 82.1228Z" fill="white"/>
<path d="M596.501 83.1228C596.388 83.8191 596.137 84.4857 595.763 85.0834C595.388 85.6811 594.898 86.1978 594.321 86.6028C593.857 86.9638 593.332 87.2382 592.771 87.4128C591.994 87.5912 591.181 87.5177 590.45 87.2031C589.718 86.8885 589.105 86.349 588.701 85.6628C588.32 84.9626 588.144 84.1697 588.192 83.3742C588.239 82.5787 588.509 81.8126 588.971 81.1628C591.151 78.0528 597.051 78.5228 596.501 83.1228Z" fill="white"/>
<path d="M116.53 40.4728C115.864 36.8728 115.197 33.2695 114.53 29.6628C114.498 29.2359 114.326 28.8316 114.04 28.5128C113.701 28.2845 113.299 28.1658 112.89 28.1728C107.602 27.7641 102.282 28.1996 97.1302 29.4628C96.4425 29.5609 95.8081 29.8887 95.3302 30.3928C94.9812 30.9973 94.8539 31.7045 94.9702 32.3928C95.1813 36.8049 95.7295 41.1943 96.6102 45.5228C96.6754 46.164 96.9454 46.7671 97.3802 47.2428C98.0304 47.665 98.8188 47.8191 99.5802 47.6728C103.672 47.412 107.738 46.8336 111.74 45.9428C115.81 45.0528 117.39 45.0528 116.53 40.4728Z" fill="#E00102"/>
<path d="M520.95 41.4728C521.617 37.8728 522.284 34.2695 522.95 30.6628C522.982 30.2359 523.155 29.8316 523.441 29.5128C523.78 29.2845 524.181 29.1658 524.59 29.1728C529.879 28.7641 535.199 29.1996 540.35 30.4628C541.038 30.5609 541.673 30.8887 542.151 31.3928C542.5 31.9973 542.627 32.7045 542.511 33.3928C542.299 37.8049 541.751 42.1943 540.871 46.5228C540.805 47.164 540.535 47.7671 540.1 48.2428C539.45 48.665 538.662 48.8191 537.901 48.6728C533.808 48.412 529.743 47.8336 525.74 46.9428C521.67 46.0528 520.09 46.0528 520.95 41.4728Z" fill="#E00102"/>
<path d="M270.98 108.253C270.829 109.141 271.022 110.052 271.52 110.803C271.916 111.137 272.379 111.383 272.877 111.524C273.375 111.665 273.898 111.699 274.41 111.623C277.563 111.583 280.714 111.51 283.86 111.403C284.396 111.445 284.928 111.285 285.35 110.953C285.65 110.562 285.8 110.075 285.77 109.583C285.93 106.37 286.097 103.16 286.27 99.9529C286.335 99.5406 286.261 99.1187 286.06 98.7528C285.868 98.5644 285.637 98.4202 285.383 98.3304C285.129 98.2406 284.858 98.2073 284.59 98.2329C281.59 98.0729 275.28 96.9029 272.59 98.4629C270.15 99.9229 271.11 105.753 270.98 108.253Z" fill="#E00102"/>
<path d="M366.501 109.253C366.651 110.141 366.458 111.052 365.961 111.803C365.565 112.137 365.102 112.383 364.604 112.524C364.106 112.665 363.583 112.699 363.071 112.623C359.917 112.583 356.767 112.51 353.621 112.403C353.085 112.445 352.553 112.285 352.131 111.953C351.83 111.562 351.681 111.075 351.711 110.583C351.551 107.37 351.384 104.16 351.211 100.953C351.146 100.541 351.22 100.119 351.421 99.7528C351.613 99.5644 351.844 99.4202 352.098 99.3304C352.352 99.2406 352.622 99.2073 352.891 99.2329C355.891 99.0729 362.201 97.9029 364.891 99.4629C367.331 100.923 366.371 106.753 366.501 109.253Z" fill="#E00102"/>
<path d="M18.7602 87.4828C18.8109 88.0358 18.9983 88.5675 19.3056 89.0301C19.6128 89.4927 20.0302 89.8716 20.5202 90.1328C21.0919 90.3988 21.7206 90.519 22.3502 90.4828C23.2044 90.5019 24.0474 90.2851 24.7866 89.8565C25.5257 89.4278 26.1325 88.8037 26.5402 88.0528C26.8563 87.3325 26.9366 86.5307 26.7695 85.762C26.6025 84.9933 26.1967 84.297 25.6102 83.7728C22.8002 81.3128 18.3902 83.9428 18.7602 87.4828Z" fill="#F7931E"/>
<path d="M618.721 88.4828C618.67 89.0358 618.482 89.5675 618.175 90.0301C617.868 90.4927 617.451 90.8716 616.961 91.1328C616.389 91.3988 615.76 91.519 615.131 91.4828C614.276 91.5019 613.433 91.2851 612.694 90.8565C611.955 90.4278 611.348 89.8037 610.941 89.0528C610.624 88.3325 610.544 87.5307 610.711 86.762C610.878 85.9933 611.284 85.297 611.871 84.7728C614.681 82.3128 619.091 84.9428 618.721 88.4828Z" fill="#F7931E"/>
<path d="M251.26 134.403C251.12 135.623 251.12 137.093 252.15 137.783C252.639 138.065 253.197 138.203 253.76 138.183C255.321 138.241 256.875 137.965 258.32 137.373C258.578 137.303 258.805 137.149 258.964 136.935C259.124 136.721 259.207 136.46 259.2 136.193C259.834 132.062 260.056 127.878 259.86 123.703C259.907 123.5 259.905 123.289 259.854 123.087C259.804 122.886 259.706 122.699 259.57 122.542C259.433 122.385 259.261 122.262 259.069 122.184C258.876 122.106 258.667 122.075 258.46 122.093C257.53 122.003 254.67 121.293 253.9 121.783C253.13 122.273 252.95 124.423 252.74 125.393C252.1 128.373 251.6 131.383 251.26 134.403Z" fill="#008657"/>
<path d="M386.221 135.403C386.361 136.623 386.361 138.093 385.331 138.783C384.842 139.065 384.284 139.203 383.721 139.183C382.16 139.241 380.605 138.965 379.161 138.373C378.903 138.303 378.676 138.149 378.516 137.935C378.357 137.721 378.274 137.46 378.281 137.193C377.646 133.062 377.425 128.878 377.621 124.703C377.574 124.5 377.576 124.289 377.627 124.087C377.677 123.886 377.775 123.699 377.911 123.542C378.048 123.385 378.219 123.262 378.412 123.184C378.605 123.106 378.813 123.075 379.021 123.093C379.951 123.003 382.811 122.293 383.581 122.783C384.351 123.273 384.531 125.423 384.741 126.393C385.381 129.373 385.881 132.383 386.221 135.403Z" fill="#008657"/>
<path d="M284.62 81.7628C284.272 78.0629 284.349 74.3352 284.85 70.6528L296.75 72.6528C297.312 69.6763 298.08 66.7425 299.05 63.8728C299.059 63.7519 299.098 63.6352 299.164 63.5331C299.229 63.4311 299.319 63.347 299.426 63.2885C299.532 63.2299 299.651 63.1987 299.772 63.1978C299.893 63.1968 300.013 63.226 300.12 63.2828L310.33 65.8428C310.737 63.2828 311.15 60.7195 311.57 58.1528C314.978 59.1223 318.319 60.3148 321.57 61.7228C311.15 66.8428 301.43 72.8228 291.49 78.8228C289.314 80.0497 287.01 81.0355 284.62 81.7628V81.7628Z" fill="white"/>
<path d="M352.861 82.7628C353.209 79.0629 353.132 75.3352 352.631 71.6528L340.731 73.6528C340.169 70.6763 339.4 67.7425 338.431 64.8728C338.421 64.7519 338.382 64.6352 338.317 64.5331C338.251 64.4311 338.161 64.347 338.055 64.2885C337.949 64.2299 337.83 64.1987 337.709 64.1978C337.587 64.1968 337.468 64.226 337.361 64.2828L327.151 66.8428C326.744 64.2828 326.331 61.7195 325.911 59.1528C322.503 60.1223 319.162 61.3148 315.911 62.7228C326.331 67.8428 336.051 73.8228 345.991 79.8228C348.167 81.0497 350.47 82.0355 352.861 82.7628V82.7628Z" fill="white"/>
<path d="M284.62 85.1528C284.272 88.8528 284.349 92.5805 284.85 96.2628L296.75 94.2628C297.312 97.2394 298.08 100.173 299.05 103.043C299.059 103.164 299.098 103.28 299.164 103.383C299.229 103.485 299.319 103.569 299.426 103.627C299.532 103.686 299.651 103.717 299.772 103.718C299.893 103.719 300.013 103.69 300.12 103.633L310.33 101.073C310.737 103.633 311.15 106.196 311.57 108.763C314.978 107.793 318.319 106.601 321.57 105.193C311.15 100.073 301.43 94.0928 291.49 88.0928C289.314 86.866 287.01 85.8801 284.62 85.1528V85.1528Z" fill="white"/>
<path d="M352.861 84.1528C353.209 87.8528 353.132 91.5805 352.631 95.2628L340.731 93.2628C340.169 96.2394 339.4 99.1732 338.431 102.043C338.421 102.164 338.382 102.28 338.317 102.383C338.251 102.485 338.161 102.569 338.055 102.627C337.949 102.686 337.83 102.717 337.709 102.718C337.587 102.719 337.468 102.69 337.361 102.633L327.151 100.073C326.744 102.633 326.331 105.196 325.911 107.763C322.503 106.793 319.162 105.601 315.911 104.193C326.331 99.0728 336.051 93.0928 345.991 87.0928C348.167 85.866 350.47 84.8801 352.861 84.1528V84.1528Z" fill="white"/>
</svg>
