<svg width="373" height="168" viewBox="0 0 373 168" fill="none" xmlns="http://www.w3.org/2000/svg">
<path d="M23.4936 38.9576V45.633H16.8007V64.0781H8.45644V45.633H1.7635V38.9576H23.4936ZM24.5578 54.4164V38.9576H32.902V53.4502C32.902 56.8494 33.8857 57.8419 35.8883 57.8419C37.8909 57.8419 38.8747 56.8494 38.8747 53.4502V38.9576H47.2189V54.4164C47.2189 61.206 42.3617 64.6051 35.8883 64.6051C29.415 64.6051 24.5578 61.206 24.5578 54.4164ZM56.9877 64.0781H48.6434V38.9401H61.4672C68.0635 38.9401 71.41 41.7683 71.41 46.8363C71.41 51.1753 68.7135 53.986 64.436 54.1353C66.6142 54.2671 68.2655 55.5934 69.3986 58.1054L72.0863 64.0781H62.7671L60.0004 58.123C59.0166 56.0062 58.8146 55.6285 57.9977 55.6285H56.9877V64.0781ZM56.9877 49.568H60.5888C62.1962 49.568 63.0482 48.8214 63.0482 47.4248C63.0482 46.0107 62.1962 45.2641 60.5888 45.2641H56.9877V49.568ZM97.1985 38.9576V64.0781H86.5004L81.0459 47.8464V64.0781H73.1408V38.9576H84.366L89.2935 53.6259V38.9576H97.1985ZM119.974 38.9576V45.633H113.281V64.0781H104.936V45.633H98.2435V38.9576H119.974ZM126.224 64.0781H117.485L125.091 38.9576H136.246L143.729 64.0781H134.814L133.91 59.7128H127.155L126.224 64.0781ZM128.499 53.3887H132.601L130.572 43.6304L128.499 53.3887ZM144.128 38.9576H157.224C163.206 38.9576 166.517 40.9163 166.517 45.0884C166.517 48.514 164.286 50.6835 161.212 51.0348C164.848 51.3686 167.58 53.7752 167.58 57.2974C167.58 61.689 163.338 64.0781 157.058 64.0781H144.128V38.9576ZM156.074 48.795C157.426 48.795 158.261 48.2066 158.261 46.8276C158.261 45.4749 157.453 44.9303 156.074 44.9303H152.473V48.795H156.074ZM152.473 58.1054H156.864C158.358 58.1054 159.201 57.5257 159.201 56.094C159.201 54.6536 158.349 54.0651 156.864 54.0651H152.473V58.1054ZM168.763 38.9576H177.107V57.4028H186.26V64.0781H168.763V38.9576ZM187.496 38.9576H205.432V45.633H195.841V48.4964H204.466V54.5569H195.841V57.4028H205.696V64.0781H187.496V38.9576ZM223.662 51.5179C223.662 55.8744 225.085 57.8419 227.966 57.8419C230.206 57.8419 231.418 56.4629 231.804 53.4502H240.061C239.261 60.354 234.694 64.6051 227.966 64.6051C220.632 64.6051 215.23 59.5547 215.23 51.5179C215.23 43.4811 220.632 38.4306 227.966 38.4306C234.694 38.4306 239.261 42.6818 240.061 49.5855H231.804C231.418 46.5728 230.206 45.1938 227.966 45.1938C225.085 45.1938 223.662 47.1613 223.662 51.5179ZM264.059 38.9576V64.0781H255.714V54.9258H249.742V64.0781H241.398V38.9576H249.742V48.1626H255.714V38.9576H264.059ZM273.208 64.0781H264.469L272.075 38.9576H283.23L290.714 64.0781H281.799L280.894 59.7128H274.14L273.208 64.0781ZM275.483 53.3887H279.585L277.556 43.6304L275.483 53.3887ZM299.457 64.0781H291.113V38.9401H303.937C310.533 38.9401 313.879 41.7683 313.879 46.8363C313.879 51.1753 311.183 53.986 306.905 54.1353C309.084 54.2671 310.735 55.5934 311.868 58.1054L314.556 64.0781H305.237L302.47 58.123C301.486 56.0062 301.284 55.6285 300.467 55.6285H299.457V64.0781ZM299.457 49.568H303.058C304.666 49.568 305.518 48.8214 305.518 47.4248C305.518 46.0107 304.666 45.2641 303.058 45.2641H299.457V49.568ZM336.539 38.9576V45.633H329.846V64.0781H321.502V45.633H314.809V38.9576H336.539ZM348.951 38.4306C356.101 38.4306 360.273 41.7859 360.273 47.4073H352.368C352.368 45.7296 351.042 44.7195 348.819 44.7195C347.01 44.7195 345.78 45.3959 345.78 46.3445C345.78 47.5741 346.94 47.741 350.163 48.1978L350.778 48.2768C354.889 48.8653 361.011 49.7349 361.011 56.094C361.011 61.4607 356.645 64.6051 349.065 64.6051C341.099 64.6051 337.076 61.1181 337.076 55.4001H344.981C344.981 57.2447 346.483 58.3162 349.057 58.3162C351.226 58.3162 352.684 57.5609 352.684 56.4805C352.684 55.1806 351.454 55.0312 348.213 54.6272L347.335 54.513C343.453 54.0299 337.427 53.2746 337.427 47.0296C337.427 41.5136 342.118 38.4306 348.951 38.4306ZM370.463 38.0881L366.809 51.7638H362.066L363.349 38.0881H370.463Z" fill="white"/>
<path d="M1.77344 106.799C1.77344 101.805 2.56986 97.3898 4.16272 93.5552C5.77523 89.7205 8.13502 86.5053 11.2421 83.9096C14.3491 81.2941 18.1838 79.3178 22.746 77.9806C27.3082 76.6237 32.5588 75.9453 38.4975 75.9453C43.9644 75.9453 48.9297 76.5058 53.3937 77.6267C57.8576 78.7279 61.6726 80.3109 64.8386 82.3757C68.0047 84.4209 70.4431 86.8888 72.1539 89.7795C73.8844 92.6703 74.7497 95.8953 74.7497 99.4546C74.7497 102.031 74.2974 104.42 73.3928 106.622C72.5079 108.805 71.2592 110.732 69.6467 112.404C68.0341 114.075 66.107 115.432 63.8652 116.475C61.6431 117.517 59.185 118.176 56.4909 118.451C59.9716 118.648 63.0884 119.247 65.8415 120.25C68.6143 121.233 70.9544 122.581 72.8619 124.291C74.789 125.983 76.2639 128.008 77.2865 130.368C78.309 132.708 78.8203 135.323 78.8203 138.214C78.8203 142.108 77.9059 145.638 76.0771 148.804C74.2482 151.95 71.6525 154.644 68.2898 156.886C64.9271 159.108 60.8565 160.829 56.0779 162.048C51.319 163.247 45.9997 163.847 40.1199 163.847C33.9058 163.847 28.4095 163.159 23.6309 161.782C18.8524 160.386 14.8407 158.321 11.596 155.588C8.371 152.855 5.92272 149.472 4.25121 145.441C2.59936 141.41 1.77344 136.749 1.77344 131.459V131.312H28.321V132.197C28.321 133.553 28.6061 134.783 29.1764 135.884C29.7467 136.985 30.5529 137.929 31.5952 138.716C32.6374 139.482 33.896 140.082 35.3708 140.515C36.8457 140.928 38.4975 141.134 40.3264 141.134C42.0569 141.134 43.6399 140.947 45.0754 140.574C46.5306 140.2 47.7794 139.679 48.8216 139.01C49.8835 138.342 50.7094 137.545 51.2994 136.621C51.8893 135.677 52.1843 134.655 52.1843 133.553C52.1843 132.806 52.0368 132.177 51.7418 131.666C51.4665 131.135 51.0142 130.712 50.3849 130.397C49.7753 130.063 48.9789 129.817 47.9957 129.66C47.0321 129.503 45.8719 129.424 44.515 129.424H28.144V109.071H42.8926C44.9181 109.071 46.3832 108.795 47.2877 108.245C48.1923 107.675 48.6446 106.75 48.6446 105.472C48.6446 104.469 48.389 103.555 47.8777 102.729C47.3861 101.883 46.6781 101.165 45.7539 100.576C44.8493 99.9659 43.7579 99.494 42.4797 99.1597C41.2211 98.8254 39.8348 98.6582 38.3206 98.6582C36.7867 98.6582 35.4003 98.8352 34.1614 99.1892C32.9422 99.5235 31.8902 100.015 31.0052 100.664C30.14 101.293 29.4714 102.07 28.9994 102.994C28.5471 103.899 28.321 104.921 28.321 106.062V106.947H1.77344V106.799Z" fill="white"/>
<path d="M79.955 119.896C79.955 115.393 80.4172 111.185 81.3414 107.271C82.2657 103.358 83.5832 99.7693 85.2941 96.5049C87.0049 93.2405 89.0795 90.34 91.518 87.8032C93.9564 85.2468 96.68 83.0935 99.6887 81.3433C102.697 79.5931 105.962 78.2559 109.482 77.3317C113.021 76.4074 116.748 75.9453 120.661 75.9453C124.575 75.9453 128.291 76.4074 131.811 77.3317C135.351 78.2559 138.625 79.5931 141.634 81.3433C144.643 83.0935 147.366 85.2468 149.805 87.8032C152.243 90.34 154.318 93.2405 156.029 96.5049C157.739 99.7693 159.057 103.358 159.981 107.271C160.905 111.185 161.368 115.393 161.368 119.896C161.368 124.4 160.905 128.608 159.981 132.521C159.057 136.434 157.739 140.023 156.029 143.288C154.318 146.552 152.243 149.462 149.805 152.019C147.366 154.556 144.643 156.699 141.634 158.449C138.625 160.199 135.351 161.537 131.811 162.461C128.291 163.385 124.575 163.847 120.661 163.847C116.748 163.847 113.021 163.385 109.482 162.461C105.962 161.537 102.697 160.199 99.6887 158.449C96.68 156.699 93.9564 154.556 91.518 152.019C89.0795 149.462 87.0049 146.552 85.2941 143.288C83.5832 140.023 82.2657 136.434 81.3414 132.521C80.4172 128.608 79.955 124.4 79.955 119.896ZM108.272 119.896C108.272 123.554 108.528 126.72 109.039 129.394C109.551 132.049 110.318 134.252 111.34 136.002C112.382 137.732 113.68 139.02 115.234 139.866C116.787 140.711 118.596 141.134 120.661 141.134C122.746 141.134 124.555 140.711 126.089 139.866C127.642 139.02 128.93 137.732 129.953 136.002C130.995 134.252 131.772 132.049 132.283 129.394C132.795 126.72 133.05 123.554 133.05 119.896C133.05 116.239 132.795 113.073 132.283 110.398C131.772 107.724 130.995 105.521 129.953 103.791C128.93 102.041 127.642 100.753 126.089 99.9266C124.555 99.081 122.746 98.6582 120.661 98.6582C118.596 98.6582 116.787 99.081 115.234 99.9266C113.68 100.753 112.382 102.041 111.34 103.791C110.318 105.521 109.551 107.724 109.039 110.398C108.528 113.073 108.272 116.239 108.272 119.896Z" fill="white"/>
<path d="M210.875 106.799C210.875 101.805 211.671 97.3898 213.264 93.5552C214.877 89.7205 217.237 86.5053 220.344 83.9096C223.451 81.2941 227.285 79.3178 231.848 77.9806C236.41 76.6237 241.66 75.9453 247.599 75.9453C253.066 75.9453 258.031 76.5058 262.495 77.6267C266.959 78.7279 270.774 80.3109 273.94 82.3757C277.106 84.4209 279.545 86.8888 281.256 89.7795C282.986 92.6703 283.851 95.8953 283.851 99.4546C283.851 102.031 283.399 104.42 282.494 106.622C281.609 108.805 280.361 110.732 278.748 112.404C277.136 114.075 275.209 115.432 272.967 116.475C270.745 117.517 268.287 118.176 265.592 118.451C269.073 118.648 272.19 119.247 274.943 120.25C277.716 121.233 280.056 122.581 281.963 124.291C283.891 125.983 285.365 128.008 286.388 130.368C287.411 132.708 287.922 135.323 287.922 138.214C287.922 142.108 287.007 145.638 285.179 148.804C283.35 151.95 280.754 154.644 277.391 156.886C274.029 159.108 269.958 160.829 265.179 162.048C260.421 163.247 255.101 163.847 249.221 163.847C243.007 163.847 237.511 163.159 232.732 161.782C227.954 160.386 223.942 158.321 220.698 155.588C217.473 152.855 215.024 149.472 213.353 145.441C211.701 141.41 210.875 136.749 210.875 131.459V131.312H237.423V132.197C237.423 133.553 237.708 134.783 238.278 135.884C238.848 136.985 239.655 137.929 240.697 138.716C241.739 139.482 242.998 140.082 244.472 140.515C245.947 140.928 247.599 141.134 249.428 141.134C251.158 141.134 252.741 140.947 254.177 140.574C255.632 140.2 256.881 139.679 257.923 139.01C258.985 138.342 259.811 137.545 260.401 136.621C260.991 135.677 261.286 134.655 261.286 133.553C261.286 132.806 261.138 132.177 260.843 131.666C260.568 131.135 260.116 130.712 259.487 130.397C258.877 130.063 258.08 129.817 257.097 129.66C256.134 129.503 254.973 129.424 253.617 129.424H237.246V109.071H251.994C254.02 109.071 255.485 108.795 256.389 108.245C257.294 107.675 257.746 106.75 257.746 105.472C257.746 104.469 257.491 103.555 256.979 102.729C256.488 101.883 255.78 101.165 254.855 100.576C253.951 99.9659 252.859 99.494 251.581 99.1597C250.323 98.8254 248.936 98.6582 247.422 98.6582C245.888 98.6582 244.502 98.8352 243.263 99.1892C242.044 99.5235 240.992 100.015 240.107 100.664C239.242 101.293 238.573 102.07 238.101 102.994C237.649 103.899 237.423 104.921 237.423 106.062V106.947H210.875V106.799Z" fill="white"/>
<path d="M289.057 119.896C289.057 115.393 289.519 111.185 290.443 107.271C291.367 103.358 292.685 99.7693 294.396 96.5049C296.106 93.2405 298.181 90.34 300.62 87.8032C303.058 85.2468 305.782 83.0935 308.79 81.3433C311.799 79.5931 315.063 78.2559 318.583 77.3317C322.123 76.4074 325.85 75.9453 329.763 75.9453C333.676 75.9453 337.393 76.4074 340.913 77.3317C344.452 78.2559 347.727 79.5931 350.735 81.3433C353.744 83.0935 356.468 85.2468 358.906 87.8032C361.345 90.34 363.419 93.2405 365.13 96.5049C366.841 99.7693 368.158 103.358 369.083 107.271C370.007 111.185 370.469 115.393 370.469 119.896C370.469 124.4 370.007 128.608 369.083 132.521C368.158 136.434 366.841 140.023 365.13 143.288C363.419 146.552 361.345 149.462 358.906 152.019C356.468 154.556 353.744 156.699 350.735 158.449C347.727 160.199 344.452 161.537 340.913 162.461C337.393 163.385 333.676 163.847 329.763 163.847C325.85 163.847 322.123 163.385 318.583 162.461C315.063 161.537 311.799 160.199 308.79 158.449C305.782 156.699 303.058 154.556 300.62 152.019C298.181 149.462 296.106 146.552 294.396 143.288C292.685 140.023 291.367 136.434 290.443 132.521C289.519 128.608 289.057 124.4 289.057 119.896ZM317.374 119.896C317.374 123.554 317.63 126.72 318.141 129.394C318.652 132.049 319.419 134.252 320.442 136.002C321.484 137.732 322.782 139.02 324.335 139.866C325.889 140.711 327.698 141.134 329.763 141.134C331.847 141.134 333.656 140.711 335.19 139.866C336.744 139.02 338.032 137.732 339.054 136.002C340.097 134.252 340.873 132.049 341.385 129.394C341.896 126.72 342.152 123.554 342.152 119.896C342.152 116.239 341.896 113.073 341.385 110.398C340.873 107.724 340.097 105.521 339.054 103.791C338.032 102.041 336.744 100.753 335.19 99.9266C333.656 99.081 331.847 98.6582 329.763 98.6582C327.698 98.6582 325.889 99.081 324.335 99.9266C322.782 100.753 321.484 102.041 320.442 103.791C319.419 105.521 318.652 107.724 318.141 110.398C317.63 113.073 317.374 116.239 317.374 119.896Z" fill="white"/>
<rect x="121.508" y="111.874" width="105.257" height="35.8383" rx="4.70957" transform="rotate(-5 121.508 111.874)" fill="#F09F1F"/>
<path d="M137.511 120.189L142.433 119.758L143.276 129.392C143.33 130.006 143.428 130.522 143.57 130.941C143.716 131.355 143.905 131.685 144.138 131.931C144.375 132.177 144.657 132.346 144.982 132.439C145.307 132.528 145.676 132.555 146.088 132.519C146.504 132.482 146.862 132.392 147.163 132.248C147.467 132.1 147.713 131.885 147.9 131.602C148.091 131.319 148.22 130.961 148.288 130.528C148.359 130.091 148.368 129.565 148.314 128.951L147.471 119.317L152.393 118.887L153.281 129.034C153.347 129.784 153.322 130.483 153.206 131.132C153.094 131.777 152.905 132.367 152.638 132.903C152.372 133.44 152.034 133.922 151.625 134.35C151.215 134.773 150.746 135.139 150.217 135.448C149.687 135.753 149.103 136 148.466 136.189C147.832 136.378 147.157 136.503 146.442 136.566C145.727 136.628 145.039 136.622 144.378 136.547C143.721 136.471 143.105 136.329 142.531 136.121C141.956 135.908 141.43 135.629 140.953 135.283C140.476 134.933 140.059 134.517 139.704 134.035C139.348 133.553 139.057 133.005 138.831 132.39C138.609 131.771 138.464 131.086 138.399 130.336L137.511 120.189ZM170.141 134.14L163.662 134.707L158.06 123.468L159.078 135.108L154.401 135.517L152.942 118.839L159.771 118.241L164.94 128.56L164.004 117.871L168.681 117.462L170.141 134.14ZM169.33 117.405L176.001 116.821C176.821 116.749 177.603 116.769 178.345 116.881C179.091 116.992 179.786 117.189 180.43 117.474C181.077 117.754 181.667 118.116 182.2 118.559C182.732 118.998 183.196 119.512 183.592 120.1C183.992 120.688 184.316 121.345 184.564 122.072C184.811 122.794 184.972 123.581 185.046 124.433C185.12 125.28 185.099 126.083 184.981 126.842C184.863 127.6 184.658 128.304 184.366 128.952C184.078 129.6 183.711 130.189 183.263 130.718C182.816 131.243 182.298 131.701 181.709 132.094C181.124 132.482 180.474 132.795 179.758 133.034C179.046 133.273 178.28 133.428 177.46 133.5L170.789 134.083L169.33 117.405ZM176.943 129.467C178.094 129.366 178.935 128.934 179.468 128.17C180 127.407 180.204 126.306 180.078 124.868C179.952 123.425 179.56 122.376 178.903 121.721C178.246 121.061 177.342 120.782 176.192 120.883L174.594 121.022L175.345 129.607L176.943 129.467ZM196.586 115.02L196.936 119.021L190.078 119.621L190.297 122.128L196.502 121.585L196.824 125.259L190.619 125.802L190.837 128.298L197.882 127.682L198.232 131.682L186.265 132.729L184.806 116.051L196.586 115.02ZM198.575 131.652L197.115 114.962L205.548 114.225C206.59 114.133 207.519 114.17 208.337 114.333C209.154 114.497 209.852 114.776 210.431 115.172C211.011 115.568 211.466 116.075 211.798 116.692C212.131 117.309 212.332 118.026 212.404 118.843C212.465 119.546 212.412 120.195 212.245 120.79C212.081 121.38 211.815 121.899 211.447 122.346C211.082 122.794 210.625 123.159 210.074 123.442C209.526 123.725 208.9 123.909 208.195 123.994C209.598 123.965 210.748 124.748 211.644 126.343L213.86 130.315L208.378 130.795L206.116 126.838C205.927 126.506 205.76 126.238 205.617 126.035C205.478 125.828 205.34 125.67 205.205 125.56C205.07 125.451 204.927 125.381 204.776 125.351C204.628 125.317 204.451 125.309 204.245 125.327L202.991 125.437L203.497 131.222L198.575 131.652ZM205.65 121.502C206.299 121.445 206.782 121.254 207.098 120.929C207.418 120.603 207.554 120.162 207.505 119.606C207.456 119.05 207.249 118.643 206.881 118.386C206.514 118.128 206.002 118.028 205.345 118.085L202.371 118.345L202.67 121.763L205.65 121.502Z" fill="#070402"/>
</svg>
