<svg width="51" height="51" viewBox="0 0 51 51" fill="none" xmlns="http://www.w3.org/2000/svg">
<rect x="0.5" y="0.5" width="50" height="50" rx="25" fill="white"/>
<rect x="0.5" y="0.5" width="50" height="50" rx="25" stroke="white"/>
<path fill-rule="evenodd" clip-rule="evenodd" d="M17.4144 17.4325C17.6798 17.1669 18.0397 17.0177 18.4149 17.0177C18.7902 17.0177 19.1501 17.1669 19.4155 17.4325L25.4912 23.5142L31.5668 17.4325C31.6973 17.2972 31.8535 17.1893 32.0262 17.115C32.1988 17.0408 32.3845 17.0017 32.5725 17.0001C32.7604 16.9984 32.9467 17.0343 33.1207 17.1055C33.2946 17.1767 33.4526 17.2819 33.5855 17.4149C33.7184 17.5479 33.8235 17.7061 33.8946 17.8802C33.9658 18.0543 34.0016 18.2409 33.9999 18.429C33.9983 18.6171 33.9593 18.803 33.8851 18.9758C33.8109 19.1487 33.7031 19.305 33.5679 19.4357L27.4923 25.5174L33.5679 31.5992C33.8257 31.8663 33.9684 32.2242 33.9652 32.5956C33.9619 32.9671 33.8131 33.3224 33.5507 33.5851C33.2883 33.8477 32.9333 33.9967 32.5623 33.9999C32.1912 34.0032 31.8337 33.8604 31.5668 33.6023L25.4912 27.5206L19.4155 33.6023C19.1486 33.8604 18.7911 34.0032 18.42 33.9999C18.049 33.9967 17.694 33.8477 17.4316 33.5851C17.1692 33.3224 17.0204 32.9671 17.0171 32.5956C17.0139 32.2242 17.1566 31.8663 17.4144 31.5992L23.49 25.5174L17.4144 19.4357C17.149 19.17 17 18.8097 17 18.4341C17 18.0584 17.149 17.6982 17.4144 17.4325Z" fill="black"/>
</svg>
