<svg width="30" height="30" viewBox="0 0 30 30" fill="none" xmlns="http://www.w3.org/2000/svg">
<path fill-rule="evenodd" clip-rule="evenodd" d="M16.1655 8.81578L14.9875 5L13.8346 8.78948H10L13.1078 11.1579L11.9048 15L15.0125 12.6316L18.1203 15L16.8922 11.1842L20 8.81578H16.1655Z" fill="white"/>
<path fill-rule="evenodd" clip-rule="evenodd" d="M5.58659 0H24.4134V1.8622H30V8.48231C30 10.2381 29.3025 11.9219 28.0611 13.1634C27.0487 14.1757 25.7425 14.8262 24.343 15.032C24.1372 16.4316 23.4867 17.7378 22.4744 18.75C21.257 19.9673 19.6144 20.6617 17.8958 20.6883V23.3798C17.8958 23.5997 17.983 23.8105 18.1384 23.9658C18.2939 24.1213 18.5047 24.2086 18.7244 24.2086C19.7394 24.2086 20.7127 24.6117 21.4303 25.3294C22.148 26.047 22.5513 27.0205 22.5513 28.0353V30H7.4488V28.0353C7.4488 27.0205 7.852 26.047 8.56966 25.3294C9.28731 24.6117 10.2607 24.2086 11.2756 24.2086C11.4954 24.2086 11.7062 24.1213 11.8616 23.9658C12.017 23.8105 12.1043 23.5997 12.1043 23.3798V20.6883C10.3856 20.6617 8.74292 19.9673 7.52558 18.75C6.51334 17.7378 5.86278 16.4316 5.657 15.032C4.25745 14.8262 2.9512 14.1757 1.93898 13.1634C0.697467 11.9219 0 10.2381 0 8.48231V1.8622H5.58659V0ZM7.65363 2.06703V14.0689C7.65363 15.2765 8.13333 16.4345 8.98719 17.2884C9.84106 18.1423 10.9992 18.622 12.2067 18.622H14.1713V23.3798C14.1713 24.1478 13.8662 24.8844 13.3232 25.4275C12.7801 25.9705 12.0436 26.2756 11.2756 26.2756C10.8089 26.2756 10.3613 26.4609 10.0313 26.7911C9.72545 27.0969 9.54383 27.5036 9.51881 27.933H20.4813C20.4563 27.5036 20.2745 27.0969 19.9688 26.7911C19.6388 26.4609 19.1911 26.2756 18.7244 26.2756C17.9564 26.2756 17.2198 25.9705 16.6769 25.4275C16.1337 24.8844 15.8287 24.1478 15.8287 23.3798V18.622H17.7933C19.0008 18.622 20.1589 18.1423 21.0128 17.2884C21.8667 16.4345 22.3464 15.2765 22.3464 14.0689V2.06703H7.65363ZM5.58659 3.92923H2.06703V8.48231C2.06703 9.68986 2.54673 10.848 3.40059 11.7018C4.00644 12.3077 4.76544 12.7251 5.58659 12.9165V3.92923ZM24.4134 12.9165V3.92923H27.933V8.48231C27.933 9.68986 27.4533 10.848 26.5994 11.7018C25.9936 12.3077 25.2345 12.7251 24.4134 12.9165Z" fill="white"/>
</svg>
