<svg width="1440" height="85" viewBox="0 0 1440 85" fill="none" xmlns="http://www.w3.org/2000/svg">
<path d="M-35 26.5234L-25.8158 25.0531L-25.8158 59.1078H-35V26.5234Z" fill="#3C3C3C"/>
<path d="M-20.1481 16.2074L-10.9639 14.7371L-10.9639 69.4238H-20.1481V16.2074Z" fill="#3C3C3C"/>
<path d="M3.88807 1.47032L-5.29613 0L-5.29613 84.1609H3.88807V1.47032Z" fill="#3C3C3C"/>
<path d="M18.74 16.2074L9.5558 14.7371V69.4238H18.74V16.2074Z" fill="#3C3C3C"/>
<path d="M33.5922 26.5234L24.408 25.0531V59.1078H33.5922V26.5234Z" fill="#3C3C3C"/>
<path d="M39.26 33.8919L48.4442 32.4216L48.4442 51.7393H39.26V33.8919Z" fill="#3C3C3C"/>
<path d="M54.1119 26.5234L63.2961 25.0531L63.2961 59.1078H54.1119V26.5234Z" fill="#3C3C3C"/>
<path d="M68.9638 16.2074L78.148 14.7371L78.148 69.4238H68.9638V16.2074Z" fill="#3C3C3C"/>
<path d="M83.8158 1.47032L93 0L93 84.1609H83.8158V1.47032Z" fill="#3C3C3C"/>
<path d="M107 26.5234L116.184 25.0531V59.1078H107V26.5234Z" fill="#3C3C3C"/>
<path d="M121.852 16.2074L131.036 14.7371V69.4238H121.852V16.2074Z" fill="#3C3C3C"/>
<path d="M145.888 1.47032L136.704 0V84.1609H145.888V1.47032Z" fill="#3C3C3C"/>
<path d="M160.74 16.2074L151.556 14.7371V69.4238H160.74V16.2074Z" fill="#3C3C3C"/>
<path d="M175.592 26.5234L166.408 25.0531V59.1078H175.592V26.5234Z" fill="#3C3C3C"/>
<path d="M181.26 33.8919L190.444 32.4216V51.7393H181.26V33.8919Z" fill="#3C3C3C"/>
<path d="M196.112 26.5234L205.296 25.0531V59.1078H196.112V26.5234Z" fill="#3C3C3C"/>
<path d="M210.964 16.2074L220.148 14.7371V69.4238H210.964V16.2074Z" fill="#3C3C3C"/>
<path d="M225.816 1.47032L235 0V84.1609H225.816V1.47032Z" fill="#3C3C3C"/>
<path d="M249 26.5234L258.184 25.0531V59.1078H249V26.5234Z" fill="#3C3C3C"/>
<path d="M263.852 16.2074L273.036 14.7371V69.4238H263.852V16.2074Z" fill="#3C3C3C"/>
<path d="M287.888 1.47032L278.704 0V84.1609H287.888V1.47032Z" fill="#3C3C3C"/>
<path d="M302.74 16.2074L293.556 14.7371L293.556 69.4238H302.74V16.2074Z" fill="#3C3C3C"/>
<path d="M317.592 26.5234L308.408 25.0531V59.1078H317.592V26.5234Z" fill="#3C3C3C"/>
<path d="M323.26 33.8919L332.444 32.4216V51.7393H323.26V33.8919Z" fill="#3C3C3C"/>
<path d="M338.112 26.5234L347.296 25.0531V59.1078H338.112V26.5234Z" fill="#3C3C3C"/>
<path d="M352.964 16.2074L362.148 14.7371V69.4238H352.964V16.2074Z" fill="#3C3C3C"/>
<path d="M367.816 1.47032L377 0V84.1609H367.816V1.47032Z" fill="#3C3C3C"/>
<path d="M391 26.5234L400.184 25.0531V59.1078H391V26.5234Z" fill="#3C3C3C"/>
<path d="M405.852 16.2074L415.036 14.7371V69.4238H405.852V16.2074Z" fill="#3C3C3C"/>
<path d="M429.888 1.47032L420.704 0V84.1609H429.888V1.47032Z" fill="#3C3C3C"/>
<path d="M444.74 16.2074L435.556 14.7371L435.556 69.4238H444.74V16.2074Z" fill="#3C3C3C"/>
<path d="M459.592 26.5234L450.408 25.0531V59.1078H459.592V26.5234Z" fill="#3C3C3C"/>
<path d="M465.26 33.8919L474.444 32.4216V51.7393H465.26V33.8919Z" fill="#3C3C3C"/>
<path d="M480.112 26.5234L489.296 25.0531V59.1078H480.112V26.5234Z" fill="#3C3C3C"/>
<path d="M494.964 16.2074L504.148 14.7371V69.4238H494.964V16.2074Z" fill="#3C3C3C"/>
<path d="M509.816 1.47032L519 0V84.1609H509.816V1.47032Z" fill="#3C3C3C"/>
<path d="M533 26.5234L542.184 25.0531V59.1078H533V26.5234Z" fill="#3C3C3C"/>
<path d="M547.852 16.2074L557.036 14.7371V69.4238H547.852V16.2074Z" fill="#3C3C3C"/>
<path d="M571.888 1.47032L562.704 0V84.1609H571.888V1.47032Z" fill="#3C3C3C"/>
<path d="M586.74 16.2074L577.556 14.7371V69.4238H586.74V16.2074Z" fill="#3C3C3C"/>
<path d="M601.592 26.5234L592.408 25.0531V59.1078H601.592V26.5234Z" fill="#3C3C3C"/>
<path d="M607.26 33.8919L616.444 32.4216V51.7393H607.26V33.8919Z" fill="#3C3C3C"/>
<path d="M622.112 26.5234L631.296 25.0531V59.1078H622.112V26.5234Z" fill="#3C3C3C"/>
<path d="M636.964 16.2074L646.148 14.7371V69.4238H636.964V16.2074Z" fill="#3C3C3C"/>
<path d="M651.816 1.47032L661 0V84.1609H651.816V1.47032Z" fill="#3C3C3C"/>
<path d="M675 26.5234L684.184 25.0531V59.1078H675V26.5234Z" fill="#3C3C3C"/>
<path d="M689.852 16.2074L699.036 14.7371V69.4238H689.852V16.2074Z" fill="#3C3C3C"/>
<path d="M713.888 1.47032L704.704 0V84.1609H713.888V1.47032Z" fill="#3C3C3C"/>
<path d="M728.74 16.2074L719.556 14.7371V69.4238H728.74V16.2074Z" fill="#3C3C3C"/>
<path d="M743.592 26.5234L734.408 25.0531V59.1078H743.592V26.5234Z" fill="#3C3C3C"/>
<path d="M749.26 33.8919L758.444 32.4216V51.7393H749.26V33.8919Z" fill="#3C3C3C"/>
<path d="M764.112 26.5234L773.296 25.0531V59.1078H764.112V26.5234Z" fill="#3C3C3C"/>
<path d="M778.964 16.2074L788.148 14.7371V69.4238H778.964V16.2074Z" fill="#3C3C3C"/>
<path d="M793.816 1.47032L803 0V84.1609H793.816V1.47032Z" fill="#3C3C3C"/>
<path d="M817 26.5234L826.184 25.0531V59.1078H817V26.5234Z" fill="#3C3C3C"/>
<path d="M831.852 16.2074L841.036 14.7371V69.4238H831.852V16.2074Z" fill="#3C3C3C"/>
<path d="M855.888 1.47032L846.704 0V84.1609H855.888V1.47032Z" fill="#3C3C3C"/>
<path d="M870.74 16.2074L861.556 14.7371V69.4238H870.74V16.2074Z" fill="#3C3C3C"/>
<path d="M885.592 26.5234L876.408 25.0531V59.1078H885.592V26.5234Z" fill="#3C3C3C"/>
<path d="M891.26 33.8919L900.444 32.4216V51.7393H891.26V33.8919Z" fill="#3C3C3C"/>
<path d="M906.112 26.5234L915.296 25.0531V59.1078H906.112V26.5234Z" fill="#3C3C3C"/>
<path d="M920.964 16.2074L930.148 14.7371V69.4238H920.964V16.2074Z" fill="#3C3C3C"/>
<path d="M935.816 1.47032L945 0V84.1609H935.816V1.47032Z" fill="#3C3C3C"/>
<path d="M959 26.5234L968.184 25.0531V59.1078H959V26.5234Z" fill="#3C3C3C"/>
<path d="M973.852 16.2074L983.036 14.7371V69.4238H973.852V16.2074Z" fill="#3C3C3C"/>
<path d="M997.888 1.47032L988.704 0V84.1609H997.888V1.47032Z" fill="#3C3C3C"/>
<path d="M1012.74 16.2074L1003.56 14.7371V69.4238H1012.74V16.2074Z" fill="#3C3C3C"/>
<path d="M1027.59 26.5234L1018.41 25.0531V59.1078H1027.59V26.5234Z" fill="#3C3C3C"/>
<path d="M1033.26 33.8919L1042.44 32.4216V51.7393H1033.26V33.8919Z" fill="#3C3C3C"/>
<path d="M1048.11 26.5234L1057.3 25.0531V59.1078H1048.11V26.5234Z" fill="#3C3C3C"/>
<path d="M1062.96 16.2074L1072.15 14.7371V69.4238H1062.96V16.2074Z" fill="#3C3C3C"/>
<path d="M1077.82 1.47032L1087 0V84.1609H1077.82V1.47032Z" fill="#3C3C3C"/>
<path d="M1101 26.5234L1110.18 25.0531V59.1078H1101V26.5234Z" fill="#3C3C3C"/>
<path d="M1115.85 16.2074L1125.04 14.7371V69.4238H1115.85V16.2074Z" fill="#3C3C3C"/>
<path d="M1139.89 1.47032L1130.7 0V84.1609H1139.89V1.47032Z" fill="#3C3C3C"/>
<path d="M1154.74 16.2074L1145.56 14.7371V69.4238H1154.74V16.2074Z" fill="#3C3C3C"/>
<path d="M1169.59 26.5234L1160.41 25.0531V59.1078H1169.59V26.5234Z" fill="#3C3C3C"/>
<path d="M1175.26 33.8919L1184.44 32.4216V51.7393H1175.26V33.8919Z" fill="#3C3C3C"/>
<path d="M1190.11 26.5234L1199.3 25.0531V59.1078H1190.11V26.5234Z" fill="#3C3C3C"/>
<path d="M1204.96 16.2074L1214.15 14.7371V69.4238H1204.96V16.2074Z" fill="#3C3C3C"/>
<path d="M1219.82 1.47032L1229 0V84.1609H1219.82V1.47032Z" fill="#3C3C3C"/>
<path d="M1243 26.5234L1252.18 25.0531V59.1078H1243V26.5234Z" fill="#3C3C3C"/>
<path d="M1257.85 16.2074L1267.04 14.7371V69.4238H1257.85V16.2074Z" fill="#3C3C3C"/>
<path d="M1281.89 1.47032L1272.7 0V84.1609H1281.89V1.47032Z" fill="#3C3C3C"/>
<path d="M1296.74 16.2074L1287.56 14.7371V69.4238H1296.74V16.2074Z" fill="#3C3C3C"/>
<path d="M1311.59 26.5234L1302.41 25.0531V59.1078H1311.59V26.5234Z" fill="#3C3C3C"/>
<path d="M1317.26 33.8919L1326.44 32.4216V51.7393H1317.26V33.8919Z" fill="#3C3C3C"/>
<path d="M1332.11 26.5234L1341.3 25.0531V59.1078H1332.11V26.5234Z" fill="#3C3C3C"/>
<path d="M1346.96 16.2074L1356.15 14.7371V69.4238H1346.96V16.2074Z" fill="#3C3C3C"/>
<path d="M1361.82 1.47032L1371 0V84.1609H1361.82V1.47032Z" fill="#3C3C3C"/>
<path d="M1385 26.5234L1394.18 25.0531V59.1078H1385V26.5234Z" fill="#3C3C3C"/>
<path d="M1399.85 16.2074L1409.04 14.7371V69.4238H1399.85V16.2074Z" fill="#3C3C3C"/>
<path d="M1423.89 1.47032L1414.7 0V84.1609H1423.89V1.47032Z" fill="#3C3C3C"/>
<path d="M1438.74 16.2074L1429.56 14.7371V69.4238H1438.74V16.2074Z" fill="#3C3C3C"/>
<path d="M1453.59 26.5234L1444.41 25.0531V59.1078H1453.59V26.5234Z" fill="#3C3C3C"/>
<path d="M1459.26 33.8919L1468.44 32.4216V51.7393H1459.26V33.8919Z" fill="#3C3C3C"/>
<path d="M1474.11 26.5234L1483.3 25.0531V59.1078H1474.11V26.5234Z" fill="#3C3C3C"/>
<path d="M1488.96 16.2074L1498.15 14.7371V69.4238H1488.96V16.2074Z" fill="#3C3C3C"/>
<path d="M1503.82 1.47032L1513 0V84.1609H1503.82V1.47032Z" fill="#3C3C3C"/>
</svg>
