<svg width="16" height="16" viewBox="0 0 16 16" fill="none" xmlns="http://www.w3.org/2000/svg">
<path d="M5.59961 2.40039C5.38744 2.40039 5.18395 2.48468 5.03392 2.63471C4.8839 2.78473 4.79961 2.98822 4.79961 3.20039C4.79961 3.41256 4.8839 3.61605 5.03392 3.76608C5.18395 3.91611 5.38744 4.00039 5.59961 4.00039H10.3996C10.6118 4.00039 10.8153 3.91611 10.9653 3.76608C11.1153 3.61605 11.1996 3.41256 11.1996 3.20039C11.1996 2.98822 11.1153 2.78473 10.9653 2.63471C10.8153 2.48468 10.6118 2.40039 10.3996 2.40039H5.59961ZM3.19961 5.60039C3.19961 5.38822 3.2839 5.18473 3.43392 5.03471C3.58395 4.88468 3.78744 4.80039 3.99961 4.80039H11.9996C12.2118 4.80039 12.4153 4.88468 12.5653 5.03471C12.7153 5.18473 12.7996 5.38822 12.7996 5.60039C12.7996 5.81256 12.7153 6.01605 12.5653 6.16608C12.4153 6.31611 12.2118 6.40039 11.9996 6.40039H3.99961C3.78744 6.40039 3.58395 6.31611 3.43392 6.16608C3.2839 6.01605 3.19961 5.81256 3.19961 5.60039ZM1.59961 8.80039C1.59961 8.37604 1.76818 7.96908 2.06824 7.66902C2.3683 7.36896 2.77526 7.20039 3.19961 7.20039H12.7996C13.224 7.20039 13.6309 7.36896 13.931 7.66902C14.231 7.96908 14.3996 8.37604 14.3996 8.80039V12.0004C14.3996 12.4247 14.231 12.8317 13.931 13.1318C13.6309 13.4318 13.224 13.6004 12.7996 13.6004H3.19961C2.77526 13.6004 2.3683 13.4318 2.06824 13.1318C1.76818 12.8317 1.59961 12.4247 1.59961 12.0004V8.80039Z" fill="currentColor"/>
</svg>
