<svg width="84" height="46" viewBox="0 0 84 46" fill="none" xmlns="http://www.w3.org/2000/svg">
<path d="M49.9712 22.9998C49.9712 35.7023 47.6121 45.9997 44.7019 45.9997C41.7917 45.9997 39.4325 35.7023 39.4325 22.9998C39.4325 10.2974 41.7917 0 44.7019 0C47.6121 0 49.9712 10.2974 49.9712 22.9998Z" fill="#F1920C"/>
<path d="M44.5676 23.0002C44.5676 35.7026 42.2084 46 39.2982 46C36.388 46 34.0288 35.7026 34.0288 23.0002C34.0288 10.2977 36.388 0.000315662 39.2982 0.000315662C42.2084 0.000315662 44.5676 10.2977 44.5676 23.0002Z" fill="#F1920C"/>
<path d="M60.3232 22.9998C60.3232 35.7023 57.964 45.9997 55.0538 45.9997C52.1436 45.9997 49.7845 35.7023 49.7845 22.9998C49.7845 10.2974 52.1436 0 55.0538 0C57.964 0 60.3232 10.2974 60.3232 22.9998Z" fill="#F1920C"/>
<path d="M34.2156 23.0002C34.2156 35.7026 31.8565 46 28.9463 46C26.0361 46 23.6769 35.7026 23.6769 23.0002C23.6769 10.2977 26.0361 0.000315662 28.9463 0.000315662C31.8565 0.000315662 34.2156 10.2977 34.2156 23.0002Z" fill="#F1920C"/>
<path d="M67.7269 22.7253C67.7269 33.6397 66.0336 42.4876 63.9448 42.4876C61.8559 42.4876 60.1626 33.6397 60.1626 22.7253C60.1626 11.811 61.8559 2.96312 63.9448 2.96312C66.0336 2.96312 67.7269 11.811 67.7269 22.7253Z" fill="#F1920C"/>
<path d="M23.8374 23.2749C23.8374 34.1893 22.144 43.0371 20.0552 43.0371C17.9664 43.0371 16.2731 34.1893 16.2731 23.2749C16.2731 12.3605 17.9664 3.51269 20.0552 3.51269C22.144 3.51269 23.8374 12.3605 23.8374 23.2749Z" fill="#F1920C"/>
<path d="M74.2128 22.5737C74.2128 32.2614 72.8869 40.1148 71.2513 40.1148C69.6158 40.1148 68.2899 32.2614 68.2899 22.5737C68.2899 12.886 69.6158 5.0326 71.2513 5.0326C72.8869 5.0326 74.2128 12.886 74.2128 22.5737Z" fill="#F1920C"/>
<path d="M15.7106 23.4266C15.7106 33.1143 14.3848 40.9677 12.7492 40.9677C11.1137 40.9677 9.78777 33.1143 9.78777 23.4266C9.78777 13.7389 11.1137 5.88552 12.7492 5.88552C14.3848 5.88552 15.7106 13.7389 15.7106 23.4266Z" fill="#F1920C"/>
<path d="M78.6347 22.3655C78.6347 29.6485 77.8134 35.5525 76.8002 35.5525C75.7871 35.5525 74.9658 29.6485 74.9658 22.3655C74.9658 15.0825 75.7871 9.1785 76.8002 9.1785C77.8134 9.1785 78.6347 15.0825 78.6347 22.3655Z" fill="#F1920C"/>
<path d="M9.03418 23.6348C9.03418 30.9178 8.21288 36.8218 7.19974 36.8218C6.18661 36.8218 5.3653 30.9178 5.3653 23.6348C5.3653 16.3518 6.18661 10.4478 7.19974 10.4478C8.21288 10.4478 9.03418 16.3518 9.03418 23.6348Z" fill="#F1920C"/>
<path d="M82.0098 22.4072C82.0098 26.2416 81.5077 29.3501 80.8884 29.3501C80.269 29.3501 79.7669 26.2416 79.7669 22.4072C79.7669 18.5727 80.269 15.4643 80.8884 15.4643C81.5077 15.4643 82.0098 18.5727 82.0098 22.4072Z" fill="#F1920C"/>
<path d="M4.23345 23.5931C4.23345 27.4276 3.73136 30.536 3.11201 30.536C2.49265 30.536 1.99056 27.4276 1.99056 23.5931C1.99056 19.7587 2.49265 16.6502 3.11201 16.6502C3.73136 16.6502 4.23345 19.7587 4.23345 23.5931Z" fill="#F1920C"/>
<path d="M84 22.4073C84 24.3678 83.7433 25.9572 83.4266 25.9572C83.1099 25.9572 82.8532 24.3678 82.8532 22.4073C82.8532 20.4467 83.1099 18.8573 83.4266 18.8573C83.7433 18.8573 84 20.4467 84 22.4073Z" fill="#F1920C"/>
<path d="M1.1468 23.5929C1.1468 25.5535 0.890079 27.1428 0.5734 27.1428C0.25672 27.1428 0 25.5535 0 23.5929C0 21.6323 0.25672 20.043 0.5734 20.043C0.890079 20.043 1.1468 21.6323 1.1468 23.5929Z" fill="#F1920C"/>
</svg>
