<svg width="10" height="10" viewBox="0 0 10 10" fill="none" xmlns="http://www.w3.org/2000/svg">
<path d="M5.8669 0.719304L6.74713 2.49196C6.86716 2.73369 7.18724 2.97541 7.45398 3.0157L9.04773 3.28428C10.068 3.45886 10.3081 4.19747 9.57454 4.93608L8.33421 6.19171C8.12749 6.39986 8.00746 6.80945 8.07414 7.10489L8.42757 8.65597C8.70764 9.87802 8.06081 10.3548 6.98719 9.71687L5.49346 8.82383C5.22006 8.66268 4.77994 8.66268 4.50654 8.82383L3.00614 9.71016C1.93252 10.348 1.28569 9.87131 1.56576 8.64925L1.91919 7.09818C1.98587 6.80945 1.86584 6.39986 1.65912 6.18499L0.425459 4.94279C-0.308068 4.20418 -0.0680045 3.45886 0.952265 3.291L2.54602 3.02241C2.81276 2.97541 3.13284 2.7404 3.25287 2.49867L4.1331 0.726019C4.60656 -0.240884 5.39344 -0.240884 5.8669 0.719304Z" fill="#0F8F49"/>
</svg>
