<svg width="70" height="73" viewBox="0 0 70 73" fill="none" xmlns="http://www.w3.org/2000/svg">
<g clip-path="url(#clip0_1_122)">
<path d="M36.63 0.399994H32.63C14.84 0.399994 0.4 16.49 0.4 36.33C0.4 56.17 14.84 72.26 32.66 72.26H36.66C54.48 72.26 68.92 56.17 68.92 36.33C68.92 16.49 54.45 0.399994 36.63 0.399994Z" fill="#CD7D0A"/>
<path d="M36.63 72.66H32.63C14.65 72.66 0 56.36 0 36.33C0 16.3 14.65 0 32.66 0H36.66C54.66 0 69.32 16.3 69.32 36.33C69.32 56.36 54.64 72.66 36.63 72.66ZM32.66 0.8C15.09 0.8 0.8 16.74 0.8 36.33C0.8 55.92 15.09 71.86 32.66 71.86H36.66C54.23 71.86 68.52 55.92 68.52 36.33C68.52 16.74 54.2 0.8 36.63 0.8H32.66Z" fill="#AB6004"/>
<path d="M60.36 60.66C65.9465 53.7889 68.9629 45.1853 68.89 36.33C68.89 36.06 68.89 35.78 68.89 35.51H0.42C0.42 35.78 0.42 36.06 0.42 36.33C0.346436 45.182 3.35511 53.7837 8.93 60.66H60.36Z" fill="url(#paint0_linear_1_122)"/>
<path d="M32.66 72.26C50.4767 72.26 64.92 56.1736 64.92 36.33C64.92 16.4864 50.4767 0.399994 32.66 0.399994C14.8433 0.399994 0.4 16.4864 0.4 36.33C0.4 56.1736 14.8433 72.26 32.66 72.26Z" fill="#F2B829"/>
<path d="M32.66 72.66C14.65 72.66 0 56.36 0 36.33C0 16.3 14.65 0 32.66 0C50.67 0 65.32 16.3 65.32 36.33C65.32 56.36 50.67 72.66 32.66 72.66ZM32.66 0.8C15.09 0.8 0.8 16.74 0.8 36.33C0.8 55.92 15.09 71.86 32.66 71.86C50.23 71.86 64.52 55.92 64.52 36.33C64.52 16.74 50.23 0.8 32.66 0.8Z" fill="#FFED8B"/>
<path d="M29.87 30.08L30.1 30L31.66 29.56C41.8958 26.6857 52.3958 24.8531 63 24.09C58.5 10.27 46.62 0.399994 32.66 0.399994C14.84 0.399994 0.4 16.49 0.4 36.33C0.40139 38.0622 0.514961 39.7925 0.74 41.51C9.6 36.05 20.21 32.85 29.87 30.08Z" fill="url(#paint1_linear_1_122)"/>
<path d="M32.66 65.78C47.2624 65.78 59.1 52.5948 59.1 36.33C59.1 20.0652 47.2624 6.88 32.66 6.88C18.0576 6.88 6.22 20.0652 6.22 36.33C6.22 52.5948 18.0576 65.78 32.66 65.78Z" fill="url(#paint2_linear_1_122)"/>
<path d="M33.4 64.26C47.2458 64.26 58.47 51.7553 58.47 36.33C58.47 20.9047 47.2458 8.39999 33.4 8.39999C19.5542 8.39999 8.33 20.9047 8.33 36.33C8.33 51.7553 19.5542 64.26 33.4 64.26Z" fill="#F2B829"/>
<path d="M18.3 36.11C25.18 34 32.15 32 39.21 30.62C45.1918 29.331 51.2624 28.4953 57.37 28.12C54.22 16.7 44.68 8.39999 33.4 8.39999C19.56 8.39999 8.33 20.91 8.33 36.33C8.33099 37.4189 8.38773 38.5069 8.5 39.59C11.72 38.33 15 37.13 18.3 36.11Z" fill="url(#paint3_linear_1_122)"/>
<path d="M38 63.47C36.81 63.47 35.58 63.47 34.4 63.38C33.22 63.29 32.25 62.83 31.35 63.65C31.1093 63.8278 30.9481 64.0932 30.9014 64.3888C30.8546 64.6844 30.9259 64.9866 31.1 65.23C31.92 66.46 33.5 66.12 34.77 65.93C36.078 65.7521 37.3198 65.2465 38.38 64.46C38.83 64.12 38.46 63.47 38 63.47Z" fill="white"/>
<path d="M26.46 0.879987C26.0278 0.601258 25.5071 0.494248 25 0.579987C24.7416 0.612596 24.5061 0.744736 24.3436 0.948299C24.1812 1.15186 24.1045 1.41078 24.13 1.66999C24.165 1.92657 24.2981 2.15958 24.5014 2.31998C24.7047 2.48038 24.9623 2.55567 25.22 2.52999C25.7681 2.45526 26.268 2.17676 26.62 1.74999C26.675 1.68553 26.7149 1.60962 26.7369 1.52779C26.7589 1.44596 26.7623 1.36025 26.747 1.27692C26.7317 1.19359 26.6979 1.11472 26.6483 1.04606C26.5987 0.977393 26.5343 0.920661 26.46 0.879987V0.879987Z" fill="white"/>
</g>
<defs>
<linearGradient id="paint0_linear_1_122" x1="37.59" y1="61.43" x2="34.11" y2="32.85" gradientUnits="userSpaceOnUse">
<stop offset="0.2" stop-color="#B15700"/>
<stop offset="1" stop-color="#B15700"/>
</linearGradient>
<linearGradient id="paint1_linear_1_122" x1="23.29" y1="11.6" x2="43.25" y2="60.61" gradientUnits="userSpaceOnUse">
<stop offset="0.2" stop-color="#FFCF51"/>
<stop offset="0.62" stop-color="#FFCF00"/>
</linearGradient>
<linearGradient id="paint2_linear_1_122" x1="31.43" y1="29.48" x2="36.38" y2="57.1" gradientUnits="userSpaceOnUse">
<stop stop-color="#CB7B11"/>
<stop offset="0.36" stop-color="#DD930C"/>
<stop offset="0.66" stop-color="#E69A0A"/>
<stop offset="0.83" stop-color="#F3BC32"/>
<stop offset="1" stop-color="#FFDA54"/>
</linearGradient>
<linearGradient id="paint3_linear_1_122" x1="21.95" y1="9.87999" x2="46.19" y2="61.65" gradientUnits="userSpaceOnUse">
<stop offset="0.2" stop-color="#FFCF51"/>
<stop offset="0.62" stop-color="#FFCF00"/>
</linearGradient>
<clipPath id="clip0_1_122">
<rect width="69.29" height="72.66" fill="white"/>
</clipPath>
</defs>
</svg>
