<svg width="70" height="73" viewBox="0 0 70 73" fill="none" xmlns="http://www.w3.org/2000/svg">
<g clip-path="url(#clip0_1_88)">
<path d="M36.63 0.399994H32.63C14.84 0.399994 0.399994 16.49 0.399994 36.33C0.399994 56.17 14.84 72.26 32.66 72.26H36.66C54.48 72.26 68.92 56.17 68.92 36.33C68.92 16.49 54.45 0.399994 36.63 0.399994Z" fill="#C57D4A"/>
<path d="M36.63 72.66H32.63C14.65 72.66 0 56.36 0 36.33C0 16.3 14.65 0 32.66 0H36.66C54.66 0 69.32 16.3 69.32 36.33C69.32 56.36 54.64 72.66 36.63 72.66ZM32.66 0.8C15.09 0.8 0.8 16.74 0.8 36.33C0.8 55.92 15.09 71.86 32.66 71.86H36.66C54.23 71.86 68.52 55.92 68.52 36.33C68.52 16.74 54.2 0.8 36.63 0.8H32.66Z" fill="#A7602D"/>
<path d="M60.36 60.66C65.9465 53.7889 68.9629 45.1853 68.89 36.33C68.89 36.05 68.89 35.78 68.89 35.51H0.419988C0.419988 35.78 0.419988 36.05 0.419988 36.33C0.346424 45.182 3.35509 53.7837 8.92999 60.66H60.36Z" fill="url(#paint0_linear_1_88)"/>
<path d="M32.66 72.26C50.4767 72.26 64.92 56.1736 64.92 36.33C64.92 16.4864 50.4767 0.399994 32.66 0.399994C14.8433 0.399994 0.399994 16.4864 0.399994 36.33C0.399994 56.1736 14.8433 72.26 32.66 72.26Z" fill="#F8B17E"/>
<path d="M32.66 72.66C14.65 72.66 0 56.36 0 36.33C0 16.3 14.65 0 32.66 0C50.67 0 65.32 16.3 65.32 36.33C65.32 56.36 50.67 72.66 32.66 72.66ZM32.66 0.8C15.09 0.8 0.8 16.74 0.8 36.33C0.8 55.92 15.09 71.86 32.66 71.86C50.23 71.86 64.52 55.92 64.52 36.33C64.52 16.74 50.23 0.8 32.66 0.8Z" fill="#FFE1AE"/>
<path d="M29.87 30.08L30.1 30L31.66 29.56C41.8957 26.6857 52.3957 24.8531 63 24.09C58.5 10.27 46.62 0.399994 32.66 0.399994C14.84 0.399994 0.399994 16.49 0.399994 36.33C0.401719 38.0622 0.515289 39.7924 0.739994 41.51C9.59999 36.05 20.21 32.85 29.87 30.08Z" fill="url(#paint1_linear_1_88)"/>
<path d="M32.66 65.78C47.2624 65.78 59.1 52.5948 59.1 36.33C59.1 20.0652 47.2624 6.88 32.66 6.88C18.0576 6.88 6.22 20.0652 6.22 36.33C6.22 52.5948 18.0576 65.78 32.66 65.78Z" fill="url(#paint2_linear_1_88)"/>
<path d="M33.4 64.26C47.2458 64.26 58.47 51.7553 58.47 36.33C58.47 20.9047 47.2458 8.39999 33.4 8.39999C19.5542 8.39999 8.32999 20.9047 8.32999 36.33C8.32999 51.7553 19.5542 64.26 33.4 64.26Z" fill="#F8B17E"/>
<path d="M18.3 36.11C25.18 34 32.15 32 39.21 30.62C45.1918 29.331 51.2624 28.4953 57.37 28.12C54.22 16.7 44.68 8.39999 33.4 8.39999C19.56 8.39999 8.32999 20.91 8.32999 36.33C8.33098 37.4189 8.38772 38.5069 8.49999 39.59C11.72 38.33 15 37.13 18.3 36.11Z" fill="url(#paint3_linear_1_88)"/>
<path d="M38 63.45C36.81 63.45 35.58 63.45 34.4 63.36C33.22 63.27 32.25 62.81 31.35 63.62C31.1107 63.8012 30.951 64.0681 30.9044 64.3646C30.8578 64.6611 30.9279 64.9641 31.1 65.21C31.92 66.44 33.5 66.09 34.77 65.91C36.078 65.7321 37.3198 65.2265 38.38 64.44C38.4769 64.3685 38.5476 64.2672 38.5814 64.1517C38.6152 64.0361 38.6101 63.9127 38.567 63.8003C38.5238 63.6879 38.445 63.5928 38.3426 63.5295C38.2402 63.4662 38.1198 63.4383 38 63.45V63.45Z" fill="white"/>
<path d="M26.46 0.859998C26.0278 0.581269 25.5071 0.474259 25 0.559998C24.7435 0.592611 24.5096 0.723316 24.3474 0.924684C24.1852 1.12605 24.1073 1.38242 24.13 1.64C24.1626 1.8984 24.2948 2.13389 24.4983 2.29637C24.7019 2.45884 24.9608 2.53549 25.22 2.51C25.769 2.4308 26.2684 2.14898 26.62 1.72C26.6749 1.65642 26.7148 1.5813 26.7368 1.50021C26.7587 1.41912 26.7621 1.33413 26.7467 1.25154C26.7314 1.16894 26.6976 1.09087 26.648 1.02309C26.5984 0.955315 26.5341 0.899574 26.46 0.859998V0.859998Z" fill="white"/>
</g>
<defs>
<linearGradient id="paint0_linear_1_88" x1="37.59" y1="61.43" x2="34.11" y2="32.85" gradientUnits="userSpaceOnUse">
<stop offset="0.2" stop-color="#A35C29"/>
<stop offset="1" stop-color="#A35C29"/>
</linearGradient>
<linearGradient id="paint1_linear_1_88" x1="23.29" y1="11.6" x2="43.25" y2="60.61" gradientUnits="userSpaceOnUse">
<stop offset="0.2" stop-color="#FFDBA8"/>
<stop offset="0.62" stop-color="#FFCF9C"/>
</linearGradient>
<linearGradient id="paint2_linear_1_88" x1="31.43" y1="29.48" x2="36.38" y2="57.1" gradientUnits="userSpaceOnUse">
<stop stop-color="#C47C49"/>
<stop offset="0.36" stop-color="#D8905D"/>
<stop offset="0.66" stop-color="#DF9764"/>
<stop offset="0.83" stop-color="#FCB582"/>
<stop offset="1" stop-color="#FFCF9C"/>
</linearGradient>
<linearGradient id="paint3_linear_1_88" x1="21.95" y1="9.87999" x2="46.19" y2="61.65" gradientUnits="userSpaceOnUse">
<stop offset="0.2" stop-color="#FFDBA8"/>
<stop offset="0.62" stop-color="#FFCF9C"/>
</linearGradient>
<clipPath id="clip0_1_88">
<rect width="69.29" height="72.66" fill="white"/>
</clipPath>
</defs>
</svg>
