<svg width="70" height="73" viewBox="0 0 70 73" fill="none" xmlns="http://www.w3.org/2000/svg">
<g clip-path="url(#clip0_1_105)">
<path d="M36.63 0.399994H32.63C14.84 0.399994 0.399994 16.49 0.399994 36.33C0.399994 56.17 14.84 72.26 32.66 72.26H36.66C54.48 72.26 68.92 56.17 68.92 36.33C68.92 16.49 54.45 0.399994 36.63 0.399994Z" fill="#8F929E"/>
<path d="M36.63 72.66H32.63C14.65 72.66 0 56.36 0 36.33C0 16.3 14.65 0 32.66 0H36.66C54.66 0 69.32 16.3 69.32 36.33C69.32 56.36 54.64 72.66 36.63 72.66ZM32.66 0.8C15.09 0.8 0.8 16.74 0.8 36.33C0.8 55.92 15.09 71.86 32.66 71.86H36.66C54.23 71.86 68.52 55.92 68.52 36.33C68.52 16.74 54.2 0.8 36.63 0.8H32.66Z" fill="#727481"/>
<path d="M60.36 60.66C65.9465 53.7889 68.9629 45.1853 68.89 36.33C68.89 36.06 68.89 35.78 68.89 35.51H0.420004C0.420004 35.78 0.420004 36.06 0.420004 36.33C0.346439 45.182 3.35511 53.7837 8.93 60.66H60.36Z" fill="url(#paint0_linear_1_105)"/>
<path d="M32.66 72.26C50.4767 72.26 64.92 56.1736 64.92 36.33C64.92 16.4864 50.4767 0.399994 32.66 0.399994C14.8433 0.399994 0.399994 16.4864 0.399994 36.33C0.399994 56.1736 14.8433 72.26 32.66 72.26Z" fill="#C3C5D2"/>
<path d="M32.66 72.66C14.65 72.66 0 56.36 0 36.33C0 16.3 14.65 0 32.66 0C50.67 0 65.32 16.3 65.32 36.33C65.32 56.36 50.67 72.66 32.66 72.66ZM32.66 0.8C15.09 0.8 0.8 16.74 0.8 36.33C0.8 55.92 15.09 71.86 32.66 71.86C50.23 71.86 64.52 55.92 64.52 36.33C64.52 16.74 50.23 0.8 32.66 0.8Z" fill="#F3F6FF"/>
<path d="M29.87 30.08L30.1 30L31.66 29.56C41.8957 26.6857 52.3957 24.8531 63 24.09C58.5 10.27 46.62 0.399994 32.66 0.399994C14.84 0.399994 0.399994 16.49 0.399994 36.33C0.401384 38.0622 0.514955 39.7925 0.739994 41.51C9.59999 36.05 20.21 32.85 29.87 30.08Z" fill="url(#paint1_linear_1_105)"/>
<path d="M32.66 65.78C47.2624 65.78 59.1 52.5948 59.1 36.33C59.1 20.0652 47.2624 6.88 32.66 6.88C18.0576 6.88 6.22 20.0652 6.22 36.33C6.22 52.5948 18.0576 65.78 32.66 65.78Z" fill="url(#paint2_linear_1_105)"/>
<path d="M33.4 64.26C47.2458 64.26 58.47 51.7553 58.47 36.33C58.47 20.9047 47.2458 8.39999 33.4 8.39999C19.5542 8.39999 8.33 20.9047 8.33 36.33C8.33 51.7553 19.5542 64.26 33.4 64.26Z" fill="#C3C5D2"/>
<path d="M18.3 36.11C25.18 34 32.15 32 39.21 30.62C45.1918 29.331 51.2624 28.4953 57.37 28.12C54.22 16.7 44.68 8.39999 33.4 8.39999C19.56 8.39999 8.33 20.91 8.33 36.33C8.33099 37.4189 8.38773 38.5069 8.5 39.59C11.72 38.33 15 37.13 18.3 36.11Z" fill="url(#paint3_linear_1_105)"/>
<path d="M38 63.68C36.81 63.68 35.58 63.68 34.4 63.59C33.22 63.5 32.25 63.04 31.35 63.85C31.1107 64.0312 30.951 64.2981 30.9044 64.5946C30.8578 64.8911 30.9279 65.1941 31.1 65.44C31.92 66.67 33.5 66.32 34.77 66.14C36.078 65.9621 37.3198 65.4565 38.38 64.67C38.4769 64.5985 38.5476 64.4972 38.5814 64.3817C38.6152 64.2661 38.6101 64.1427 38.567 64.0303C38.5238 63.9179 38.445 63.8228 38.3426 63.7595C38.2402 63.6962 38.1198 63.6683 38 63.68Z" fill="white"/>
<path d="M26.46 1.09001C26.0278 0.81128 25.507 0.70427 25 0.790009C24.7435 0.822622 24.5096 0.953327 24.3474 1.15469C24.1852 1.35606 24.1072 1.61244 24.13 1.87001C24.1626 2.12841 24.2947 2.3639 24.4983 2.52638C24.7019 2.68885 24.9608 2.7655 25.22 2.74001C25.776 2.68341 26.2903 2.41915 26.66 2.00001C26.7239 1.9336 26.7704 1.85244 26.7954 1.76374C26.8205 1.67503 26.8232 1.58153 26.8034 1.49151C26.7836 1.40149 26.7419 1.31775 26.682 1.24771C26.6221 1.17767 26.5459 1.1235 26.46 1.09001V1.09001Z" fill="white"/>
</g>
<defs>
<linearGradient id="paint0_linear_1_105" x1="37.59" y1="61.43" x2="34.11" y2="32.85" gradientUnits="userSpaceOnUse">
<stop offset="0.2" stop-color="#6E707D"/>
<stop offset="1" stop-color="#6E707D"/>
</linearGradient>
<linearGradient id="paint1_linear_1_105" x1="23.29" y1="11.6" x2="43.25" y2="60.61" gradientUnits="userSpaceOnUse">
<stop offset="0.2" stop-color="#EDF0FC"/>
<stop offset="0.62" stop-color="#E0E3F0"/>
</linearGradient>
<linearGradient id="paint2_linear_1_105" x1="31.43" y1="29.48" x2="36.38" y2="57.1" gradientUnits="userSpaceOnUse">
<stop stop-color="#8E919D"/>
<stop offset="0.36" stop-color="#A2A5B1"/>
<stop offset="0.66" stop-color="#A9ACB8"/>
<stop offset="0.83" stop-color="#C7C9D6"/>
<stop offset="1" stop-color="#E1E4F0"/>
</linearGradient>
<linearGradient id="paint3_linear_1_105" x1="21.95" y1="9.87999" x2="46.19" y2="61.65" gradientUnits="userSpaceOnUse">
<stop offset="0.2" stop-color="#EDF0FC"/>
<stop offset="0.62" stop-color="#E0E3F0"/>
</linearGradient>
<clipPath id="clip0_1_105">
<rect width="69.29" height="72.66" fill="white"/>
</clipPath>
</defs>
</svg>
